<svg width="277" height="82" viewBox="0 0 277 82" fill="none" xmlns="http://www.w3.org/2000/svg">
<path d="M20.388 0.515029L20.91 16.262H30.654L31.176 0.515029H20.388ZM20.91 66.287L20.388 81.425H31.089L30.567 66.287H20.91ZM36.657 29.138L47.706 22.787C46.488 20.583 44.951 18.495 43.095 16.523C41.239 14.551 38.89 12.956 36.048 11.738C33.206 10.52 29.697 9.91103 25.521 9.91103C21.287 9.91103 17.546 10.665 14.298 12.173C11.108 13.681 8.58499 15.682 6.72899 18.176C4.93099 20.67 4.03199 23.396 4.03199 26.354C4.03199 29.312 4.58299 31.864 5.68499 34.01C6.84499 36.098 8.26599 37.896 9.94799 39.404C11.688 40.912 13.486 42.159 15.342 43.145C17.256 44.073 18.967 44.798 20.475 45.32C22.853 46.248 24.97 47.118 26.826 47.93C28.74 48.742 30.248 49.699 31.35 50.801C32.51 51.845 33.09 53.179 33.09 54.803C33.09 56.079 32.8 57.181 32.22 58.109C31.698 59.037 30.886 59.733 29.784 60.197C28.74 60.603 27.348 60.806 25.608 60.806C23.52 60.806 21.606 60.4 19.866 59.588C18.184 58.776 16.618 57.558 15.168 55.934C13.718 54.31 12.268 52.28 10.818 49.844L0.464994 57.152C1.74099 59.936 3.62599 62.488 6.11999 64.808C8.61399 67.128 11.485 69.013 14.733 70.463C18.039 71.855 21.519 72.551 25.173 72.551C29.987 72.551 34.134 71.855 37.614 70.463C41.094 69.071 43.791 67.041 45.705 64.373C47.619 61.647 48.576 58.399 48.576 54.629C48.576 51.961 48.141 49.641 47.271 47.669C46.459 45.639 45.328 43.87 43.878 42.362C42.428 40.854 40.775 39.578 38.919 38.534C37.063 37.432 35.091 36.504 33.003 35.75C30.567 34.822 28.276 33.981 26.13 33.227C24.042 32.415 22.331 31.487 20.997 30.443C19.721 29.399 19.083 28.007 19.083 26.267C19.083 25.223 19.315 24.295 19.779 23.483C20.301 22.671 21.055 22.004 22.041 21.482C23.085 20.96 24.39 20.699 25.956 20.699C27.522 20.699 28.943 21.047 30.219 21.743C31.495 22.439 32.655 23.425 33.699 24.701C34.801 25.977 35.787 27.456 36.657 29.138ZM53.4541 71.681H105.045V58.196H80.6851L94.8661 45.494C97.4761 43.232 99.5931 40.738 101.217 38.012C102.841 35.228 103.653 32.183 103.653 28.877C103.653 26.557 103.16 24.266 102.174 22.004C101.188 19.742 99.7091 17.683 97.7371 15.827C95.8231 13.913 93.4161 12.405 90.5161 11.303C87.6161 10.143 84.2811 9.56303 80.5111 9.56303C75.2911 9.56303 70.8541 10.636 67.2001 12.782C63.6041 14.928 60.9071 17.799 59.1091 21.395C57.3111 24.991 56.4121 28.964 56.4121 33.314H70.8541C70.8541 31.11 71.2021 29.167 71.8981 27.485C72.6521 25.803 73.7251 24.498 75.1171 23.57C76.5671 22.642 78.2201 22.178 80.0761 22.178C81.4681 22.178 82.6861 22.41 83.7301 22.874C84.7741 23.28 85.6441 23.86 86.3401 24.614C87.0361 25.31 87.5581 26.122 87.9061 27.05C88.2541 27.978 88.4281 28.906 88.4281 29.834C88.4281 31.458 88.1091 32.995 87.4711 34.445C86.8911 35.837 85.9921 37.258 84.7741 38.708C83.6141 40.158 82.2221 41.782 80.5981 43.58L53.4541 71.681ZM161.443 52.193C161.443 47.959 160.573 44.363 158.833 41.405C157.093 38.447 154.802 36.185 151.96 34.619C149.176 33.053 146.16 32.27 142.912 32.27C140.998 32.27 139.142 32.444 137.344 32.792C135.604 33.082 133.922 33.604 132.298 34.358L135.778 23.483H160.138V10.781H124.99L116.464 45.929C118.552 44.885 120.582 44.102 122.554 43.58C124.584 43 126.527 42.623 128.383 42.449C130.297 42.217 132.037 42.101 133.603 42.101C135.633 42.101 137.518 42.391 139.258 42.971C141.056 43.551 142.506 44.479 143.608 45.755C144.768 46.973 145.348 48.597 145.348 50.627C145.348 52.541 144.884 54.165 143.956 55.499C143.028 56.833 141.694 57.819 139.954 58.457C138.214 59.095 136.097 59.414 133.603 59.414C132.153 59.414 130.529 59.153 128.731 58.631C126.933 58.051 125.135 57.297 123.337 56.369C121.597 55.383 119.886 54.194 118.204 52.802L112.462 64.895C114.376 66.287 116.493 67.592 118.813 68.81C121.133 70.028 123.772 70.985 126.73 71.681C129.746 72.435 133.11 72.812 136.822 72.812C139.78 72.812 142.709 72.435 145.609 71.681C148.509 70.869 151.148 69.622 153.526 67.94C155.962 66.258 157.876 64.112 159.268 61.502C160.718 58.892 161.443 55.789 161.443 52.193ZM182.543 41.231C182.543 38.389 182.804 35.808 183.326 33.488C183.848 31.11 184.602 29.109 185.588 27.485C186.574 25.803 187.734 24.527 189.068 23.657C190.46 22.729 191.997 22.265 193.679 22.265C195.361 22.265 196.869 22.729 198.203 23.657C199.595 24.527 200.784 25.803 201.77 27.485C202.756 29.109 203.51 31.11 204.032 33.488C204.554 35.808 204.815 38.389 204.815 41.231C204.815 44.073 204.554 46.683 204.032 49.061C203.51 51.381 202.756 53.382 201.77 55.064C200.784 56.688 199.595 57.964 198.203 58.892C196.869 59.762 195.361 60.197 193.679 60.197C191.997 60.197 190.46 59.762 189.068 58.892C187.734 57.964 186.574 56.688 185.588 55.064C184.602 53.382 183.848 51.381 183.326 49.061C182.804 46.683 182.543 44.073 182.543 41.231ZM168.362 41.231C168.362 47.843 169.406 53.498 171.494 58.196C173.64 62.894 176.627 66.519 180.455 69.071C184.283 71.565 188.691 72.812 193.679 72.812C198.841 72.812 203.307 71.565 207.077 69.071C210.905 66.519 213.834 62.894 215.864 58.196C217.952 53.498 218.996 47.843 218.996 41.231C218.996 34.619 217.952 28.964 215.864 24.266C213.834 19.568 210.905 15.972 207.077 13.478C203.307 10.926 198.841 9.65003 193.679 9.65003C188.691 9.65003 184.283 10.926 180.455 13.478C176.627 15.972 173.64 19.568 171.494 24.266C169.406 28.964 168.362 34.619 168.362 41.231ZM240.147 41.231C240.147 38.389 240.408 35.808 240.93 33.488C241.452 31.11 242.206 29.109 243.192 27.485C244.178 25.803 245.338 24.527 246.672 23.657C248.064 22.729 249.601 22.265 251.283 22.265C252.965 22.265 254.473 22.729 255.807 23.657C257.199 24.527 258.388 25.803 259.374 27.485C260.36 29.109 261.114 31.11 261.636 33.488C262.158 35.808 262.419 38.389 262.419 41.231C262.419 44.073 262.158 46.683 261.636 49.061C261.114 51.381 260.36 53.382 259.374 55.064C258.388 56.688 257.199 57.964 255.807 58.892C254.473 59.762 252.965 60.197 251.283 60.197C249.601 60.197 248.064 59.762 246.672 58.892C245.338 57.964 244.178 56.688 243.192 55.064C242.206 53.382 241.452 51.381 240.93 49.061C240.408 46.683 240.147 44.073 240.147 41.231ZM225.966 41.231C225.966 47.843 227.01 53.498 229.098 58.196C231.244 62.894 234.231 66.519 238.059 69.071C241.887 71.565 246.295 72.812 251.283 72.812C256.445 72.812 260.911 71.565 264.681 69.071C268.509 66.519 271.438 62.894 273.468 58.196C275.556 53.498 276.6 47.843 276.6 41.231C276.6 34.619 275.556 28.964 273.468 24.266C271.438 19.568 268.509 15.972 264.681 13.478C260.911 10.926 256.445 9.65003 251.283 9.65003C246.295 9.65003 241.887 10.926 238.059 13.478C234.231 15.972 231.244 19.568 229.098 24.266C227.01 28.964 225.966 34.619 225.966 41.231Z" fill="white"/>
<path d="M20.388 0.515028V-12.485H6.94992L7.39513 0.94573L20.388 0.515028ZM20.91 16.262L7.91713 16.6927L8.33379 29.262H20.91V16.262ZM30.654 16.262V29.262H43.2302L43.6469 16.6927L30.654 16.262ZM31.176 0.515028L44.1689 0.94573L44.6141 -12.485H31.176V0.515028ZM20.91 66.287V53.287H8.35054L7.91772 65.839L20.91 66.287ZM20.388 81.425L7.39572 80.977L6.932 94.425H20.388V81.425ZM31.089 81.425V94.425H44.545L44.0813 80.977L31.089 81.425ZM30.567 66.287L43.5593 65.839L43.1264 53.287H30.567V66.287ZM36.657 29.138L25.1102 35.1105L31.3535 47.181L43.1355 40.4088L36.657 29.138ZM47.706 22.787L54.1845 34.0578L65.2672 27.6874L59.0841 16.4991L47.706 22.787ZM43.095 16.523L33.6284 25.4328L33.6284 25.4328L43.095 16.523ZM36.048 11.738L30.927 23.6869L30.9271 23.6869L36.048 11.738ZM14.298 12.173L8.82354 0.381914L8.78274 0.40086L8.74207 0.420086L14.298 12.173ZM6.72899 18.176L-3.70004 10.4149L-3.75877 10.4938L-3.8163 10.5736L6.72899 18.176ZM5.68499 34.01L-5.87938 39.9485L-5.78228 40.1376L-5.67905 40.3234L5.68499 34.01ZM9.94799 39.404L1.26991 49.0834L1.3513 49.1564L1.4339 49.228L9.94799 39.404ZM15.342 43.145L9.24297 54.6255L9.4547 54.738L9.67044 54.8426L15.342 43.145ZM20.475 45.32L25.201 33.2095L24.9659 33.1178L24.7274 33.0352L20.475 45.32ZM26.826 47.93L21.6154 59.8401L21.6819 59.8692L21.7488 59.8976L26.826 47.93ZM31.35 50.801L22.1576 59.9934L22.3993 60.2352L22.6535 60.4639L31.35 50.801ZM32.22 58.109L21.196 51.219L21.0368 51.4738L20.8895 51.7356L32.22 58.109ZM29.784 60.197L34.4958 72.3131L34.6632 72.248L34.8287 72.1783L29.784 60.197ZM19.866 59.588L14.2143 71.2952L14.2911 71.3323L14.3685 71.3684L19.866 59.588ZM10.818 49.844L21.9888 43.1947L14.8013 31.1198L3.32111 39.2234L10.818 49.844ZM0.464994 57.152L-7.03189 46.5314L-15.8502 52.7561L-11.3528 62.5685L0.464994 57.152ZM6.11999 64.808L14.9743 55.2896L6.11999 64.808ZM14.733 70.463L9.43353 82.3338L9.5603 82.3904L9.68825 82.4443L14.733 70.463ZM37.614 70.463L32.7859 58.3928H32.7859L37.614 70.463ZM45.705 64.373L56.268 71.9508L56.3065 71.8972L56.3444 71.8432L45.705 64.373ZM47.271 47.669L35.2008 52.4971L35.2853 52.7083L35.3771 52.9163L47.271 47.669ZM43.878 42.362L34.5072 51.3724L34.5072 51.3725L43.878 42.362ZM38.919 38.534L32.282 49.7121L32.4129 49.7899L32.5456 49.8645L38.919 38.534ZM33.003 35.75L28.3751 47.8984L28.481 47.9387L28.5876 47.9772L33.003 35.75ZM26.13 33.227L21.4182 45.3431L21.6182 45.4209L21.8207 45.492L26.13 33.227ZM20.997 30.443L12.7649 40.5045L12.874 40.5937L12.985 40.6806L20.997 30.443ZM19.779 23.483L8.84367 16.4532L8.66018 16.7386L8.49184 17.0332L19.779 23.483ZM22.041 21.482L16.2272 9.85448L16.092 9.92207L15.9585 9.99278L22.041 21.482ZM30.219 21.743L23.9939 33.1557L23.9939 33.1557L30.219 21.743ZM33.699 24.701L23.6376 32.9331L23.7472 33.0671L23.8603 33.1981L33.699 24.701ZM7.39513 0.94573L7.91713 16.6927L33.9029 15.8313L33.3809 0.0843277L7.39513 0.94573ZM20.91 29.262H30.654V3.26203H20.91V29.262ZM43.6469 16.6927L44.1689 0.94573L18.1831 0.0843277L17.6611 15.8313L43.6469 16.6927ZM31.176 -12.485H20.388V13.515H31.176V-12.485ZM7.91772 65.839L7.39572 80.977L33.3803 81.873L33.9023 66.735L7.91772 65.839ZM20.388 94.425H31.089V68.425H20.388V94.425ZM44.0813 80.977L43.5593 65.839L17.5747 66.735L18.0967 81.873L44.0813 80.977ZM30.567 53.287H20.91V79.287H30.567V53.287ZM43.1355 40.4088L54.1845 34.0578L41.2275 11.5163L30.1785 17.8673L43.1355 40.4088ZM59.0841 16.4991C57.303 13.2762 55.1061 10.3168 52.5616 7.61329L33.6284 25.4328C34.7959 26.6733 35.673 27.8899 36.3279 29.075L59.0841 16.4991ZM52.5616 7.6133C49.3194 4.1685 45.4211 1.61148 41.1689 -0.210859L30.9271 23.6869C32.3589 24.3006 33.1585 24.9336 33.6284 25.4328L52.5616 7.6133ZM41.169 -0.210854C36.2482 -2.31975 30.8757 -3.08897 25.521 -3.08897V22.911C28.5183 22.911 30.1638 23.3598 30.927 23.6869L41.169 -0.210854ZM25.521 -3.08897C19.7371 -3.08897 14.0713 -2.05456 8.82354 0.381914L19.7724 23.9641C21.0207 23.3846 22.8369 22.911 25.521 22.911V-3.08897ZM8.74207 0.420086C3.88806 2.71471 -0.40843 5.99179 -3.70004 10.4149L17.158 25.9372C17.5784 25.3723 18.3279 24.6473 19.8539 23.926L8.74207 0.420086ZM-3.8163 10.5736C-7.14312 15.1882 -8.96801 20.5545 -8.96801 26.354H17.032C17.032 26.2756 17.0377 26.2301 17.0409 26.2099C17.0441 26.1902 17.0475 26.1767 17.0522 26.1626C17.0569 26.1483 17.0972 26.0241 17.2743 25.7785L-3.8163 10.5736ZM-8.96801 26.354C-8.96801 30.9174 -8.11472 35.5955 -5.87938 39.9485L17.2494 28.0716C17.2807 28.1326 17.032 27.7067 17.032 26.354H-8.96801ZM-5.67905 40.3234C-3.85761 43.602 -1.54873 46.5564 1.26991 49.0834L18.6261 29.7246C18.0807 29.2357 17.5476 28.5941 17.049 27.6967L-5.67905 40.3234ZM1.4339 49.228C3.84424 51.317 6.44429 53.1387 9.24297 54.6255L21.441 31.6645C20.5277 31.1793 19.5317 30.5071 18.4621 29.5801L1.4339 49.228ZM9.67044 54.8426C11.9041 55.9256 14.1017 56.8707 16.2226 57.6049L24.7274 33.0352C23.8323 32.7254 22.6079 32.2204 21.0135 31.4474L9.67044 54.8426ZM15.7489 57.4305C18.0037 58.3105 19.9543 59.1133 21.6154 59.8401L32.0366 36.02C29.9857 35.1227 27.7023 34.1856 25.201 33.2095L15.7489 57.4305ZM21.7488 59.8976C22.154 60.0695 22.3623 60.1921 22.4268 60.2331C22.4897 60.273 22.3706 60.2064 22.1576 59.9934L40.5424 41.6086C37.937 39.0033 34.8697 37.221 31.9031 35.9625L21.7488 59.8976ZM22.6535 60.4639C21.9525 59.833 21.2382 58.9298 20.7331 57.768C20.2334 56.6187 20.09 55.5664 20.09 54.803H46.09C46.09 49.6636 44.0696 44.7589 40.0465 41.1382L22.6535 60.4639ZM20.09 54.803C20.09 54.054 20.2827 52.6803 21.196 51.219L43.244 64.999C45.3173 61.6818 46.09 58.1041 46.09 54.803H20.09ZM20.8895 51.7356C21.3769 50.8692 22.0167 50.0931 22.7592 49.4567C23.4883 48.8317 24.1941 48.4453 24.7393 48.2158L34.8287 72.1783C38.2457 70.7396 41.4407 68.2332 43.5505 64.4824L20.8895 51.7356ZM25.0722 48.081C25.3763 47.9627 25.62 47.8923 25.7828 47.8516C25.946 47.8108 26.0497 47.7944 26.081 47.7898C26.1313 47.7825 25.9908 47.806 25.608 47.806V73.806C28.1658 73.806 31.3542 73.5348 34.4958 72.3131L25.0722 48.081ZM25.608 47.806C25.4102 47.806 25.317 47.7872 25.3041 47.7845C25.2945 47.7825 25.3219 47.7882 25.3635 47.8076L14.3685 71.3684C17.9762 73.052 21.7888 73.806 25.608 73.806V47.806ZM25.5177 47.8809C25.6036 47.9223 25.3653 47.836 24.8652 47.2758L5.47081 64.5922C7.87067 67.2801 10.7644 69.6297 14.2143 71.2952L25.5177 47.8809ZM24.8652 47.2758C24.1065 46.4261 23.1329 45.1169 21.9888 43.1947L-0.352814 56.4933C1.40304 59.4432 3.32952 62.194 5.47081 64.5922L24.8652 47.2758ZM3.32111 39.2234L-7.03189 46.5314L7.96188 67.7726L18.3149 60.4646L3.32111 39.2234ZM-11.3528 62.5685C-9.29168 67.0656 -6.33529 70.9767 -2.73436 74.3265L14.9743 55.2896C13.5873 53.9993 12.7737 52.8064 12.2828 51.7355L-11.3528 62.5685ZM-2.73436 74.3265C0.852885 77.6634 4.93756 80.3267 9.43353 82.3338L20.0325 58.5922C18.0324 57.6994 16.3751 56.5926 14.9743 55.2896L-2.73436 74.3265ZM9.68825 82.4443C14.6214 84.5214 19.8195 85.551 25.173 85.551V59.551C23.2185 59.551 21.4566 59.1887 19.7777 58.4818L9.68825 82.4443ZM25.173 85.551C31.1914 85.551 37.0581 84.6868 42.4421 82.5332L32.7859 58.3928C31.2099 59.0233 28.7826 59.551 25.173 59.551V85.551ZM42.4421 82.5332C47.8889 80.3545 52.7134 76.9058 56.268 71.9508L35.142 56.7952C34.8686 57.1763 34.2991 57.7876 32.7859 58.3928L42.4421 82.5332ZM56.3444 71.8432C59.9925 66.6474 61.576 60.7064 61.576 54.629H35.576C35.576 56.0917 35.2455 56.6466 35.0656 56.9028L56.3444 71.8432ZM61.576 54.629C61.576 50.5719 60.9159 46.3906 59.1649 42.4217L35.3771 52.9163C35.3661 52.8914 35.576 53.3502 35.576 54.629H61.576ZM59.3412 42.841C57.9357 39.3273 55.9117 36.121 53.2488 33.3516L34.5072 51.3725C34.7443 51.6191 34.9823 51.9508 35.2008 52.4971L59.3412 42.841ZM53.2488 33.3516C50.9026 30.9115 48.2355 28.859 45.2924 27.2035L32.5456 49.8645C33.3145 50.297 33.9534 50.7965 34.5072 51.3724L53.2488 33.3516ZM45.556 27.3559C42.9744 25.8231 40.2564 24.5477 37.4184 23.5228L28.5876 47.9772C29.9256 48.4604 31.1516 49.0409 32.282 49.7121L45.556 27.3559ZM37.6309 23.6017C35.1041 22.6391 32.7061 21.7585 30.4393 20.962L21.8207 45.492C23.8459 46.2036 26.0299 47.005 28.3751 47.8984L37.6309 23.6017ZM30.8418 21.111C29.5819 20.621 29.0776 20.2592 29.009 20.2055L12.985 40.6806C15.5844 42.7149 18.5021 44.209 21.4182 45.3431L30.8418 21.111ZM29.2291 20.3816C30.0047 21.0162 30.8105 21.9583 31.3793 23.1995C31.9389 24.4205 32.083 25.5225 32.083 26.267H6.08299C6.08299 31.6579 8.28411 36.8384 12.7649 40.5045L29.2291 20.3816ZM32.083 26.267C32.083 27.2165 31.8509 28.5596 31.0662 29.9328L8.49184 17.0332C6.77911 20.0305 6.08299 23.2296 6.08299 26.267H32.083ZM30.7143 30.5129C29.8519 31.8545 28.8007 32.6127 28.1235 32.9713L15.9585 9.99278C13.3092 11.3953 10.7501 13.4876 8.84367 16.4532L30.7143 30.5129ZM27.8548 33.1096C26.5853 33.7443 25.7504 33.699 25.956 33.699V7.69903C23.0296 7.69903 19.5847 8.17575 16.2272 9.85448L27.8548 33.1096ZM25.956 33.699C25.7699 33.699 25.4739 33.6775 25.1039 33.5869C24.7293 33.4951 24.3498 33.3498 23.9939 33.1557L36.4441 10.3304C33.1121 8.51294 29.524 7.69903 25.956 7.69903V33.699ZM23.9939 33.1557C23.8148 33.0579 23.6925 32.9658 23.6266 32.9097C23.5631 32.8558 23.5709 32.8516 23.6376 32.9331L43.7604 16.4689C41.7965 14.0685 39.3765 11.9299 36.4441 10.3304L23.9939 33.1557ZM23.8603 33.1981C24.22 33.6146 24.6521 34.2249 25.1102 35.1105L48.2038 23.1655C46.9219 20.6872 45.382 18.3394 43.5377 16.204L23.8603 33.1981ZM53.4541 71.681L44.1039 62.6492L22.8224 84.681H53.4541V71.681ZM105.045 71.681V84.681H118.045V71.681H105.045ZM105.045 58.196H118.045V45.196H105.045V58.196ZM80.6851 58.196L72.0116 48.5126L46.6869 71.196H80.6851V58.196ZM94.8661 45.494L86.352 35.6701L86.2717 35.7397L86.1926 35.8106L94.8661 45.494ZM101.217 38.012L112.385 44.6655L112.416 44.6141L112.446 44.5623L101.217 38.012ZM102.174 22.004L114.091 16.8094L114.091 16.8094L102.174 22.004ZM97.7371 15.827L88.5447 25.0194L88.684 25.1587L88.8274 25.2936L97.7371 15.827ZM90.5161 11.303L85.688 23.3732L85.7928 23.4151L85.8983 23.4552L90.5161 11.303ZM67.2001 12.782L60.6166 1.57231L60.5773 1.5954L60.5382 1.61876L67.2001 12.782ZM59.1091 21.395L70.7367 27.2088V27.2088L59.1091 21.395ZM56.4121 33.314H43.4121V46.314H56.4121V33.314ZM70.8541 33.314V46.314H83.8541V33.314H70.8541ZM71.8981 27.485L60.0355 22.1673L59.9582 22.3398L59.8859 22.5145L71.8981 27.485ZM75.1171 23.57L68.1094 12.6205L68.0071 12.686L67.906 12.7534L75.1171 23.57ZM83.7301 22.874L78.4503 34.7536L78.7315 34.8786L79.0183 34.9901L83.7301 22.874ZM86.3401 24.614L76.7877 33.4317L76.964 33.6227L77.1477 33.8064L86.3401 24.614ZM87.9061 27.05L75.7338 31.6146L75.7338 31.6146L87.9061 27.05ZM87.4711 34.445L75.572 29.2094L75.5204 29.3267L75.4711 29.445L87.4711 34.445ZM84.7741 38.708L74.8199 30.3465L74.7199 30.4656L74.6228 30.587L84.7741 38.708ZM80.5981 43.58L89.9483 52.6118L90.0996 52.4553L90.2454 52.2938L80.5981 43.58ZM53.4541 84.681H105.045V58.681H53.4541V84.681ZM118.045 71.681V58.196H92.0451V71.681H118.045ZM105.045 45.196H80.6851V71.196H105.045V45.196ZM89.3587 67.8795L103.54 55.1775L86.1926 35.8106L72.0116 48.5126L89.3587 67.8795ZM103.38 55.318C106.946 52.2276 109.991 48.6839 112.385 44.6655L90.0488 31.3586C89.1947 32.7922 88.0062 34.2364 86.352 35.6701L103.38 55.318ZM112.446 44.5623C115.261 39.7372 116.653 34.4227 116.653 28.877H90.6531C90.6531 29.9434 90.4213 30.7188 89.988 31.4617L112.446 44.5623ZM116.653 28.877C116.653 24.6574 115.745 20.6042 114.091 16.8094L90.2571 27.1986C90.5749 27.9279 90.6531 28.4566 90.6531 28.877H116.653ZM114.091 16.8094C112.336 12.7836 109.774 9.30399 106.647 6.36043L88.8274 25.2936C89.6438 26.0621 90.0399 26.7005 90.2571 27.1986L114.091 16.8094ZM106.929 6.63464C103.54 3.24532 99.5007 0.810225 95.1339 -0.849157L85.8983 23.4552C87.3315 23.9998 88.1061 24.5807 88.5447 25.0194L106.929 6.63464ZM95.3442 -0.767162C90.6265 -2.65425 85.6012 -3.43697 80.5111 -3.43697V22.563C82.961 22.563 84.6057 22.9403 85.688 23.3732L95.3442 -0.767162ZM80.5111 -3.43697C73.5099 -3.43697 66.6813 -1.98945 60.6166 1.57231L73.7836 23.9917C75.027 23.2615 77.0723 22.563 80.5111 22.563V-3.43697ZM60.5382 1.61876C54.9034 4.98144 50.4376 9.66922 47.4816 15.5813L70.7367 27.2088C71.3766 25.9288 72.3048 24.8746 73.8621 23.9453L60.5382 1.61876ZM47.4816 15.5812C44.7084 21.1275 43.4121 27.1146 43.4121 33.314H69.4121C69.4121 30.8134 69.9138 28.8546 70.7367 27.2088L47.4816 15.5812ZM56.4121 46.314H70.8541V20.314H56.4121V46.314ZM83.8541 33.314C83.8541 32.4649 83.9884 32.267 83.9103 32.4556L59.8859 22.5145C58.4158 26.0671 57.8541 29.7551 57.8541 33.314H83.8541ZM83.7607 32.8028C83.7069 32.9228 83.572 33.1824 83.3099 33.5011C83.0421 33.8268 82.7071 34.1341 82.3282 34.3867L67.906 12.7534C64.2721 15.176 61.6856 18.4862 60.0355 22.1673L83.7607 32.8028ZM82.1248 34.5196C81.7717 34.7455 81.3703 34.9265 80.9577 35.0423C80.5521 35.1561 80.2402 35.178 80.0761 35.178V9.17803C75.9386 9.17803 71.8156 10.2485 68.1094 12.6205L82.1248 34.5196ZM80.0761 35.178C80.0375 35.178 79.3901 35.1713 78.4503 34.7536L89.0099 10.9945C85.9821 9.64881 82.8987 9.17803 80.0761 9.17803V35.178ZM79.0183 34.9901C78.3905 34.7459 77.5528 34.2606 76.7877 33.4317L95.8926 15.7964C93.7354 13.4594 91.1577 11.8141 88.4419 10.758L79.0183 34.9901ZM77.1477 33.8064C76.5221 33.1808 76.0328 32.4118 75.7338 31.6146L100.078 22.4854C99.0835 19.8323 97.5501 17.4392 95.5325 15.4216L77.1477 33.8064ZM75.7338 31.6146C75.572 31.183 75.4281 30.5682 75.4281 29.834H101.428C101.428 27.2439 100.936 24.7731 100.078 22.4854L75.7338 31.6146ZM75.4281 29.834C75.4281 29.7891 75.4331 29.693 75.4601 29.563C75.4873 29.432 75.5278 29.3099 75.572 29.2094L99.3702 39.6806C100.753 36.5386 101.428 33.2141 101.428 29.834H75.4281ZM75.4711 29.445C75.509 29.3542 75.3962 29.6605 74.8199 30.3465L94.7283 47.0695C96.588 44.8556 98.2733 42.3199 99.4711 39.445L75.4711 29.445ZM74.6228 30.587C73.6649 31.7844 72.45 33.2065 70.9508 34.8663L90.2454 52.2938C91.9943 50.3576 93.5633 48.5317 94.9254 46.8291L74.6228 30.587ZM71.2479 34.5482L44.1039 62.6492L62.8043 80.7128L89.9483 52.6118L71.2479 34.5482ZM158.833 41.405L170.038 34.8138V34.8138L158.833 41.405ZM151.96 34.619L145.586 45.9495L145.636 45.9774L145.686 46.0049L151.96 34.619ZM137.344 32.792L139.481 45.6152L139.648 45.5873L139.814 45.5552L137.344 32.792ZM132.298 34.358L119.916 30.3959L110.88 58.6349L137.772 46.1491L132.298 34.358ZM135.778 23.483V10.483H126.288L123.396 19.5209L135.778 23.483ZM160.138 23.483V36.483H173.138V23.483H160.138ZM160.138 10.781H173.138V-2.21897H160.138V10.781ZM124.99 10.781V-2.21897H114.766L112.356 7.71644L124.99 10.781ZM116.464 45.929L103.83 42.8644L97.2281 70.0813L122.278 57.5566L116.464 45.929ZM122.554 43.58L125.88 56.1472L126.003 56.1147L126.125 56.0798L122.554 43.58ZM128.383 42.449L129.596 55.3923L129.772 55.3758L129.947 55.3546L128.383 42.449ZM139.258 42.971L135.147 55.3039L135.207 55.3239L135.267 55.3432L139.258 42.971ZM143.608 45.755L133.769 54.2521L133.976 54.4915L134.194 54.7206L143.608 45.755ZM139.954 58.457L135.479 46.2516L135.479 46.2516L139.954 58.457ZM128.731 58.631L124.74 71.0032L124.922 71.0621L125.106 71.1155L128.731 58.631ZM123.337 56.369L116.928 67.6793L117.149 67.8046L117.375 67.9211L123.337 56.369ZM118.204 52.802L126.492 42.7869L113.625 32.1378L106.46 47.226L118.204 52.802ZM112.462 64.895L100.718 59.319L96.0914 69.0637L104.816 75.4086L112.462 64.895ZM118.813 68.81L112.77 80.3202L118.813 68.81ZM126.73 71.681L129.883 59.0692L129.795 59.0473L129.707 59.0266L126.73 71.681ZM145.609 71.681L148.88 84.2627L148.997 84.2322L149.114 84.1996L145.609 71.681ZM153.526 67.94L146.139 57.2424L146.079 57.2842L146.019 57.3266L153.526 67.94ZM159.268 61.502L147.904 55.1887L147.85 55.2861L147.797 55.3844L159.268 61.502ZM174.443 52.193C174.443 46.1797 173.199 40.1875 170.038 34.8138L147.628 47.9963C147.947 48.5385 148.443 49.7384 148.443 52.193H174.443ZM170.038 34.8138C167.185 29.9645 163.239 25.9913 158.234 23.2331L145.686 46.0049C146.364 46.3787 147 46.9296 147.628 47.9963L170.038 34.8138ZM158.333 23.2885C153.569 20.6089 148.353 19.27 142.912 19.27V45.27C143.967 45.27 144.782 45.4972 145.586 45.9495L158.333 23.2885ZM142.912 19.27C140.206 19.27 137.521 19.5164 134.874 20.0289L139.814 45.5552C140.762 45.3716 141.79 45.27 142.912 45.27V19.27ZM135.207 19.9689C132.296 20.4541 129.492 21.3278 126.823 22.5669L137.772 46.1491C138.351 45.8802 138.912 45.71 139.481 45.6152L135.207 19.9689ZM144.679 38.3201L148.159 27.4451L123.396 19.5209L119.916 30.3959L144.679 38.3201ZM135.778 36.483H160.138V10.483H135.778V36.483ZM173.138 23.483V10.781H147.138V23.483H173.138ZM160.138 -2.21897H124.99V23.781H160.138V-2.21897ZM112.356 7.71644L103.83 42.8644L129.097 48.9936L137.623 13.8456L112.356 7.71644ZM122.278 57.5566C123.682 56.8542 124.88 56.412 125.88 56.1472L119.227 31.0129C116.284 31.7921 113.421 32.9158 110.65 34.3015L122.278 57.5566ZM126.125 56.0798C127.484 55.6916 128.635 55.4824 129.596 55.3923L127.169 29.5058C124.419 29.7637 121.684 30.3084 118.982 31.0802L126.125 56.0798ZM129.947 55.3546C131.456 55.1717 132.663 55.101 133.603 55.101V29.101C131.411 29.101 129.138 29.2623 126.819 29.5435L129.947 55.3546ZM133.603 55.101C134.384 55.101 134.866 55.2103 135.147 55.3039L143.369 30.6381C140.17 29.5718 136.882 29.101 133.603 29.101V55.101ZM135.267 55.3432C135.206 55.3235 134.988 55.2446 134.686 55.0516C134.377 54.8534 134.056 54.584 133.769 54.2521L153.447 37.258C150.605 33.968 147.034 31.8198 143.249 30.5988L135.267 55.3432ZM134.194 54.7206C133.488 53.9794 132.976 53.1145 132.67 52.2589C132.379 51.4436 132.348 50.8441 132.348 50.627H158.348C158.348 45.9913 156.944 40.9076 153.022 36.7895L134.194 54.7206ZM132.348 50.627C132.348 50.534 132.359 50.2012 132.5 49.7092C132.646 49.1999 132.899 48.6288 133.284 48.0752L154.628 62.9229C157.326 59.0438 158.348 54.7113 158.348 50.627H132.348ZM133.284 48.0752C133.647 47.5539 134.083 47.1167 134.532 46.7847C134.969 46.4619 135.321 46.3094 135.479 46.2516L144.429 70.6624C148.312 69.2388 151.966 66.7483 154.628 62.9229L133.284 48.0752ZM135.479 46.2516C135.573 46.2172 135.064 46.414 133.603 46.414V72.414C137.129 72.414 140.855 71.9729 144.429 70.6624L135.479 46.2516ZM133.603 46.414C133.676 46.414 133.299 46.4204 132.355 46.1465L125.106 71.1155C127.759 71.8857 130.63 72.414 133.603 72.414V46.414ZM132.722 46.2588C131.648 45.9125 130.508 45.4409 129.299 44.817L117.375 67.9211C119.762 69.1532 122.217 70.1896 124.74 71.0032L132.722 46.2588ZM129.746 45.0587C128.726 44.4809 127.64 43.7367 126.492 42.7869L109.915 62.8172C112.132 64.6514 114.467 66.2851 116.928 67.6793L129.746 45.0587ZM106.46 47.226L100.718 59.319L124.205 70.471L129.947 58.378L106.46 47.226ZM104.816 75.4086C107.29 77.2081 109.951 78.84 112.77 80.3202L124.856 57.2999C123.035 56.3441 121.462 55.366 120.108 54.3815L104.816 75.4086ZM112.77 80.3202C116.199 82.1206 119.894 83.4276 123.752 84.3355L129.707 59.0266C127.65 58.5425 126.066 57.9355 124.856 57.2999L112.77 80.3202ZM123.577 84.2929C127.8 85.3487 132.245 85.812 136.822 85.812V59.812C133.974 59.812 131.691 59.5213 129.883 59.0692L123.577 84.2929ZM136.822 85.812C140.898 85.812 144.926 85.2908 148.88 84.2627L142.338 59.0993C140.492 59.5792 138.662 59.812 136.822 59.812V85.812ZM149.114 84.1996C153.398 83.0001 157.399 81.1239 161.033 78.5534L146.019 57.3266C144.897 58.1201 143.62 58.738 142.104 59.1625L149.114 84.1996ZM160.912 78.6377C165.054 75.7778 168.369 72.0619 170.738 67.6197L147.797 55.3844C147.382 56.1622 146.869 56.7383 146.139 57.2424L160.912 78.6377ZM170.632 67.8154C173.354 62.9156 174.443 57.5483 174.443 52.193H148.443C148.443 54.0298 148.082 54.8685 147.904 55.1887L170.632 67.8154ZM183.326 33.488L196.009 36.3417L196.016 36.3085L196.024 36.2753L183.326 33.488ZM185.588 27.485L196.7 34.2317L196.752 34.146L196.803 34.0594L185.588 27.485ZM189.068 23.657L196.17 34.546L196.225 34.5101L196.279 34.4737L189.068 23.657ZM198.203 23.657L190.779 34.3288L191.042 34.5115L191.313 34.681L198.203 23.657ZM201.77 27.485L190.555 34.0594L190.606 34.146L190.658 34.2317L201.77 27.485ZM204.032 33.488L191.334 36.2753L191.342 36.3085L191.349 36.3417L204.032 33.488ZM204.032 49.061L216.715 51.9147L216.722 51.8815L216.73 51.8483L204.032 49.061ZM201.77 55.064L212.882 61.8107L212.934 61.725L212.985 61.6384L201.77 55.064ZM198.203 58.892L205.305 69.781L205.36 69.7451L205.414 69.7087L198.203 58.892ZM189.068 58.892L181.644 69.5638L181.907 69.7465L182.178 69.916L189.068 58.892ZM185.588 55.064L174.373 61.6384L174.424 61.725L174.476 61.8107L185.588 55.064ZM183.326 49.061L170.628 51.8483L170.636 51.8815L170.643 51.9147L183.326 49.061ZM171.494 58.196L159.615 63.4758L159.642 63.5368L159.669 63.5975L171.494 58.196ZM180.455 69.071L173.244 79.8877L173.301 79.9258L173.359 79.9632L180.455 69.071ZM207.077 69.071L214.25 79.9133L214.269 79.9005L214.288 79.8877L207.077 69.071ZM215.864 58.196L203.985 52.9162L203.957 52.9777L203.93 53.0395L215.864 58.196ZM215.864 24.266L203.93 29.4225L203.957 29.4843L203.985 29.5458L215.864 24.266ZM207.077 13.478L199.79 24.2435L199.885 24.3077L199.981 24.3702L207.077 13.478ZM180.455 13.478L187.552 24.3702L187.609 24.3328L187.666 24.2947L180.455 13.478ZM171.494 24.266L159.669 18.8646L159.642 18.9253L159.615 18.9862L171.494 24.266ZM195.543 41.231C195.543 39.1691 195.734 37.5645 196.009 36.3417L170.643 30.6344C169.874 34.0515 169.543 37.6089 169.543 41.231H195.543ZM196.024 36.2753C196.321 34.9217 196.633 34.3432 196.7 34.2317L174.476 20.7383C172.571 23.8749 171.375 27.2984 170.628 30.7007L196.024 36.2753ZM196.803 34.0594C196.995 33.7317 196.859 34.0965 196.17 34.546L181.967 12.7681C178.609 14.9575 176.153 17.8743 174.373 20.9107L196.803 34.0594ZM196.279 34.4737C195.955 34.6896 195.529 34.9051 195.022 35.0583C194.515 35.2113 194.05 35.265 193.679 35.265V9.26503C189.445 9.26503 185.397 10.4805 181.857 12.8404L196.279 34.4737ZM193.679 35.265C193.31 35.265 192.812 35.2117 192.248 35.0382C191.681 34.8634 191.181 34.6085 190.779 34.3288L205.627 12.9853C202.034 10.4859 197.916 9.26503 193.679 9.26503V35.265ZM191.313 34.681C190.986 34.4768 190.76 34.2712 190.628 34.129C190.501 33.9929 190.489 33.9463 190.555 34.0594L212.985 20.9107C211.136 17.7567 208.57 14.8063 205.093 12.6331L191.313 34.681ZM190.658 34.2317C190.725 34.3432 191.037 34.9217 191.334 36.2753L216.73 30.7007C215.983 27.2984 214.787 23.8749 212.882 20.7383L190.658 34.2317ZM191.349 36.3417C191.624 37.5645 191.815 39.1691 191.815 41.231H217.815C217.815 37.6089 217.484 34.0515 216.715 30.6344L191.349 36.3417ZM191.815 41.231C191.815 43.2874 191.625 44.9483 191.334 46.2737L216.73 51.8483C217.483 48.4177 217.815 44.8587 217.815 41.231H191.815ZM191.349 46.2074C191.059 47.4956 190.733 48.1864 190.555 48.4897L212.985 61.6384C214.779 58.5777 215.961 55.2665 216.715 51.9147L191.349 46.2074ZM190.658 48.3173C190.585 48.438 190.567 48.4421 190.628 48.3766C190.692 48.3075 190.813 48.1946 190.992 48.0754L205.414 69.7087C208.59 67.5912 211.043 64.8395 212.882 61.8107L190.658 48.3173ZM191.102 48.0031C191.499 47.7441 191.965 47.5253 192.468 47.3801C192.967 47.2364 193.388 47.197 193.679 47.197V73.197C197.734 73.197 201.737 72.1076 205.305 69.781L191.102 48.0031ZM193.679 47.197C193.972 47.197 194.362 47.2368 194.805 47.3621C195.25 47.4881 195.642 47.6706 195.958 47.8681L182.178 69.916C185.689 72.1105 189.624 73.197 193.679 73.197V47.197ZM196.492 48.2203C196.674 48.347 196.78 48.4535 196.817 48.4943C196.851 48.5315 196.804 48.4881 196.7 48.3173L174.476 61.8107C176.246 64.7265 178.589 67.4388 181.644 69.5638L196.492 48.2203ZM196.803 48.4897C196.625 48.1864 196.299 47.4956 196.009 46.2074L170.643 51.9147C171.397 55.2665 172.579 58.5777 174.373 61.6384L196.803 48.4897ZM196.024 46.2737C195.733 44.9483 195.543 43.2874 195.543 41.231H169.543C169.543 44.8587 169.875 48.4177 170.628 51.8483L196.024 46.2737ZM155.362 41.231C155.362 49.1621 156.609 56.7127 159.615 63.4758L183.374 52.9162C182.203 50.2834 181.362 46.524 181.362 41.231H155.362ZM159.669 63.5975C162.693 70.2172 167.165 75.8352 173.244 79.8877L187.666 58.2544C186.089 57.2029 184.587 55.5708 183.319 52.7946L159.669 63.5975ZM173.359 79.9632C179.491 83.9585 186.412 85.812 193.679 85.812V59.812C190.97 59.812 189.075 59.1715 187.552 58.1788L173.359 79.9632ZM193.679 85.812C201.019 85.812 208.061 84.0071 214.25 79.9133L199.905 58.2288C198.553 59.1229 196.663 59.812 193.679 59.812V85.812ZM214.288 79.8877C220.434 75.7906 224.888 70.0854 227.798 63.3525L203.93 53.0395C202.78 55.7026 201.376 57.2474 199.866 58.2544L214.288 79.8877ZM227.744 63.4758C230.749 56.7127 231.996 49.1621 231.996 41.231H205.996C205.996 46.524 205.155 50.2834 203.985 52.9162L227.744 63.4758ZM231.996 41.231C231.996 33.3 230.749 25.7494 227.744 18.9862L203.985 29.5458C205.155 32.1787 205.996 35.9381 205.996 41.231H231.996ZM227.798 19.1095C224.88 12.3577 220.394 6.63877 214.174 2.58581L199.981 24.3702C201.416 25.3053 202.788 26.7784 203.93 29.4225L227.798 19.1095ZM214.364 2.71261C208.163 -1.48499 201.079 -3.34998 193.679 -3.34998V22.65C196.603 22.65 198.451 23.337 199.79 24.2435L214.364 2.71261ZM193.679 -3.34998C186.351 -3.34998 179.388 -1.43465 173.244 2.66138L187.666 24.2947C189.178 23.2867 191.032 22.65 193.679 22.65V-3.34998ZM173.359 2.58581C167.205 6.59467 162.702 12.2259 159.669 18.8646L183.319 29.6675C184.578 26.9102 186.049 25.3494 187.552 24.3702L173.359 2.58581ZM159.615 18.9862C156.609 25.7494 155.362 33.3 155.362 41.231H181.362C181.362 35.9381 182.203 32.1787 183.374 29.5458L159.615 18.9862ZM240.93 33.488L253.613 36.3417L253.62 36.3085L253.627 36.2753L240.93 33.488ZM243.192 27.485L254.304 34.2317L254.356 34.146L254.407 34.0594L243.192 27.485ZM246.672 23.657L253.773 34.546L253.828 34.5101L253.883 34.4737L246.672 23.657ZM255.807 23.657L248.383 34.3288L248.645 34.5115L248.917 34.681L255.807 23.657ZM259.374 27.485L248.159 34.0594L248.209 34.146L248.261 34.2317L259.374 27.485ZM261.636 33.488L248.938 36.2753L248.945 36.3085L248.953 36.3417L261.636 33.488ZM261.636 49.061L274.319 51.9147L274.326 51.8815L274.333 51.8483L261.636 49.061ZM259.374 55.064L270.486 61.8107L270.538 61.725L270.589 61.6384L259.374 55.064ZM255.807 58.892L262.908 69.781L262.963 69.7451L263.018 69.7087L255.807 58.892ZM246.672 58.892L239.248 69.5638L239.51 69.7465L239.782 69.916L246.672 58.892ZM243.192 55.064L231.977 61.6384L232.027 61.725L232.079 61.8107L243.192 55.064ZM240.93 49.061L228.232 51.8483L228.239 51.8815L228.247 51.9147L240.93 49.061ZM229.098 58.196L217.218 63.4758L217.245 63.5368L217.273 63.5975L229.098 58.196ZM238.059 69.071L230.847 79.8877L230.905 79.9258L230.962 79.9632L238.059 69.071ZM264.681 69.071L271.853 79.9133L271.872 79.9005L271.892 79.8877L264.681 69.071ZM273.468 58.196L261.588 52.9162L261.561 52.9777L261.534 53.0395L273.468 58.196ZM273.468 24.266L261.534 29.4225L261.561 29.4843L261.588 29.5458L273.468 24.266ZM264.681 13.478L257.393 24.2435L257.488 24.3077L257.584 24.3702L264.681 13.478ZM238.059 13.478L245.155 24.3702L245.213 24.3328L245.27 24.2947L238.059 13.478ZM229.098 24.266L217.273 18.8646L217.245 18.9253L217.218 18.9862L229.098 24.266ZM253.147 41.231C253.147 39.1691 253.337 37.5645 253.613 36.3417L228.247 30.6344C227.478 34.0515 227.147 37.6089 227.147 41.231H253.147ZM253.627 36.2753C253.924 34.9217 254.236 34.3432 254.304 34.2317L232.079 20.7383C230.175 23.8749 228.979 27.2984 228.232 30.7007L253.627 36.2753ZM254.407 34.0594C254.599 33.7317 254.462 34.0965 253.773 34.546L239.57 12.7681C236.213 14.9575 233.756 17.8743 231.977 20.9107L254.407 34.0594ZM253.883 34.4737C253.559 34.6896 253.133 34.9051 252.625 35.0583C252.118 35.2113 251.653 35.265 251.283 35.265V9.26503C247.049 9.26503 243 10.4805 239.46 12.8404L253.883 34.4737ZM251.283 35.265C250.913 35.265 250.416 35.2117 249.852 35.0382C249.284 34.8634 248.785 34.6085 248.383 34.3288L263.23 12.9853C259.638 10.4859 255.52 9.26503 251.283 9.26503V35.265ZM248.917 34.681C248.59 34.4768 248.364 34.2712 248.231 34.129C248.105 33.9929 248.092 33.9463 248.159 34.0594L270.589 20.9107C268.74 17.7567 266.174 14.8063 262.697 12.6331L248.917 34.681ZM248.261 34.2317C248.329 34.3432 248.641 34.9217 248.938 36.2753L274.333 30.7007C273.586 27.2984 272.39 23.8749 270.486 20.7383L248.261 34.2317ZM248.953 36.3417C249.228 37.5645 249.419 39.1691 249.419 41.231H275.419C275.419 37.6089 275.087 34.0515 274.319 30.6344L248.953 36.3417ZM249.419 41.231C249.419 43.2874 249.229 44.9483 248.938 46.2737L274.333 51.8483C275.086 48.4177 275.419 44.8587 275.419 41.231H249.419ZM248.953 46.2074C248.663 47.4956 248.336 48.1864 248.159 48.4897L270.589 61.6384C272.383 58.5777 273.564 55.2665 274.319 51.9147L248.953 46.2074ZM248.261 48.3173C248.188 48.438 248.17 48.4421 248.231 48.3766C248.296 48.3075 248.417 48.1946 248.595 48.0754L263.018 69.7087C266.194 67.5912 268.647 64.8395 270.486 61.8107L248.261 48.3173ZM248.705 48.0031C249.102 47.7441 249.569 47.5253 250.072 47.3801C250.57 47.2364 250.992 47.197 251.283 47.197V73.197C255.338 73.197 259.341 72.1076 262.908 69.781L248.705 48.0031ZM251.283 47.197C251.575 47.197 251.966 47.2368 252.409 47.3621C252.854 47.4881 253.246 47.6706 253.562 47.8681L239.782 69.916C243.293 72.1105 247.228 73.197 251.283 73.197V47.197ZM254.095 48.2203C254.278 48.347 254.383 48.4535 254.42 48.4943C254.454 48.5315 254.408 48.4881 254.304 48.3173L232.079 61.8107C233.85 64.7265 236.193 67.4388 239.248 69.5638L254.095 48.2203ZM254.407 48.4897C254.229 48.1864 253.902 47.4956 253.613 46.2074L228.247 51.9147C229.001 55.2665 230.182 58.5777 231.977 61.6384L254.407 48.4897ZM253.627 46.2737C253.336 44.9483 253.147 43.2874 253.147 41.231H227.147C227.147 44.8587 227.479 48.4177 228.232 51.8483L253.627 46.2737ZM212.966 41.231C212.966 49.1621 214.212 56.7127 217.218 63.4758L240.977 52.9162C239.807 50.2834 238.966 46.524 238.966 41.231H212.966ZM217.273 63.5975C220.297 70.2172 224.769 75.8352 230.847 79.8877L245.27 58.2544C243.692 57.2029 242.19 55.5708 240.922 52.7946L217.273 63.5975ZM230.962 79.9632C237.094 83.9585 244.016 85.812 251.283 85.812V59.812C248.574 59.812 246.679 59.1715 245.155 58.1788L230.962 79.9632ZM251.283 85.812C258.623 85.812 265.665 84.0071 271.853 79.9133L257.508 58.2288C256.156 59.1229 254.267 59.812 251.283 59.812V85.812ZM271.892 79.8877C278.037 75.7906 282.492 70.0854 285.401 63.3525L261.534 53.0395C260.383 55.7026 258.98 57.2474 257.469 58.2544L271.892 79.8877ZM285.347 63.4758C288.353 56.7127 289.6 49.1621 289.6 41.231H263.6C263.6 46.524 262.758 50.2834 261.588 52.9162L285.347 63.4758ZM289.6 41.231C289.6 33.3 288.353 25.7494 285.347 18.9862L261.588 29.5458C262.758 32.1787 263.6 35.9381 263.6 41.231H289.6ZM285.401 19.1095C282.484 12.3577 277.998 6.63877 271.777 2.58581L257.584 24.3702C259.019 25.3053 260.391 26.7784 261.534 29.4225L285.401 19.1095ZM271.968 2.71261C265.767 -1.48499 258.683 -3.34998 251.283 -3.34998V22.65C254.206 22.65 256.054 23.337 257.393 24.2435L271.968 2.71261ZM251.283 -3.34998C243.954 -3.34998 236.992 -1.43465 230.847 2.66138L245.27 24.2947C246.782 23.2867 248.635 22.65 251.283 22.65V-3.34998ZM230.962 2.58581C224.809 6.59467 220.305 12.2259 217.273 18.8646L240.922 29.6675C242.182 26.9102 243.652 25.3494 245.155 24.3702L230.962 2.58581ZM217.218 18.9862C214.212 25.7494 212.966 33.3 212.966 41.231H238.966C238.966 35.9381 239.807 32.1787 240.977 29.5458L217.218 18.9862Z" fill="#FFC700"/>
</svg>
