<svg width="323" height="69" viewBox="0 0 323 69" fill="none" xmlns="http://www.w3.org/2000/svg">
<path d="M15.473 43.279C15.473 41.249 15.908 39.451 16.778 37.885C17.706 36.319 18.924 35.101 20.432 34.231C21.998 33.361 23.767 32.926 25.739 32.926C27.653 32.926 29.364 33.361 30.872 34.231C32.438 35.101 33.656 36.319 34.526 37.885C35.454 39.451 35.918 41.249 35.918 43.279C35.918 45.367 35.454 47.194 34.526 48.76C33.656 50.268 32.438 51.457 30.872 52.327C29.364 53.139 27.653 53.545 25.739 53.545C23.767 53.545 21.998 53.139 20.432 52.327C18.924 51.457 17.706 50.268 16.778 48.76C15.908 47.194 15.473 45.367 15.473 43.279ZM25.565 4.04203L7.991 26.401C6.01899 28.837 4.33699 31.447 2.94499 34.231C1.61099 37.015 0.943994 40.031 0.943994 43.279C0.943994 48.267 2.04599 52.472 4.24999 55.894C6.51199 59.258 9.49899 61.81 13.211 63.55C16.981 65.232 21.157 66.073 25.739 66.073C30.263 66.073 34.381 65.232 38.093 63.55C41.863 61.81 44.85 59.258 47.054 55.894C49.316 52.472 50.447 48.267 50.447 43.279C50.447 40.205 49.896 37.45 48.794 35.014C47.75 32.578 46.3 30.519 44.444 28.837C42.646 27.097 40.616 25.792 38.354 24.922C36.15 23.994 33.917 23.53 31.655 23.53C29.451 23.53 27.595 23.762 26.087 24.226C24.637 24.69 23.1 25.734 21.476 27.358L24.521 26.053L44.183 4.04203H25.565ZM60.6212 58.765C60.6212 60.969 61.4042 62.854 62.9702 64.42C64.5362 65.986 66.4792 66.769 68.7992 66.769C71.2352 66.769 73.2072 65.986 74.7152 64.42C76.2232 62.854 76.9772 60.969 76.9772 58.765C76.9772 56.561 76.2232 54.676 74.7152 53.11C73.2072 51.544 71.2352 50.761 68.7992 50.761C66.4792 50.761 64.5362 51.544 62.9702 53.11C61.4042 54.676 60.6212 56.561 60.6212 58.765ZM101.708 43.279C101.708 41.249 102.143 39.451 103.013 37.885C103.941 36.319 105.159 35.101 106.667 34.231C108.233 33.361 110.002 32.926 111.974 32.926C113.888 32.926 115.599 33.361 117.107 34.231C118.673 35.101 119.891 36.319 120.761 37.885C121.689 39.451 122.153 41.249 122.153 43.279C122.153 45.367 121.689 47.194 120.761 48.76C119.891 50.268 118.673 51.457 117.107 52.327C115.599 53.139 113.888 53.545 111.974 53.545C110.002 53.545 108.233 53.139 106.667 52.327C105.159 51.457 103.941 50.268 103.013 48.76C102.143 47.194 101.708 45.367 101.708 43.279ZM111.8 4.04203L94.2263 26.401C92.2543 28.837 90.5723 31.447 89.1803 34.231C87.8463 37.015 87.1793 40.031 87.1793 43.279C87.1793 48.267 88.2813 52.472 90.4853 55.894C92.7473 59.258 95.7343 61.81 99.4463 63.55C103.216 65.232 107.392 66.073 111.974 66.073C116.498 66.073 120.616 65.232 124.328 63.55C128.098 61.81 131.085 59.258 133.289 55.894C135.551 52.472 136.682 48.267 136.682 43.279C136.682 40.205 136.131 37.45 135.029 35.014C133.985 32.578 132.535 30.519 130.679 28.837C128.881 27.097 126.851 25.792 124.589 24.922C122.385 23.994 120.152 23.53 117.89 23.53C115.686 23.53 113.83 23.762 112.322 24.226C110.872 24.69 109.335 25.734 107.711 27.358L110.756 26.053L130.418 4.04203H111.8ZM173.549 3.78103V64.681H188.774V3.78103H173.549ZM209.48 3.78103L184.511 32.752L210.176 64.681H228.011L201.998 32.317L226.706 3.78103H209.48ZM293.564 38.494L276.86 0.736029L260.33 38.494L248.324 3.78103H230.924L257.285 68.248L276.86 31.534L296.522 68.248L322.883 3.78103H305.396L293.564 38.494Z" fill="white"/>
<path d="M16.778 37.885L5.59421 31.2576L5.50189 31.4134L5.41395 31.5717L16.778 37.885ZM20.432 34.231L14.1186 22.867L14.0267 22.9181L13.9356 22.9706L20.432 34.231ZM30.872 34.231L24.3756 45.4914L24.4667 45.544L24.5586 45.5951L30.872 34.231ZM34.526 37.885L23.162 44.1984L23.2499 44.3567L23.3422 44.5125L34.526 37.885ZM34.526 48.76L23.3422 42.1326L23.3035 42.1979L23.2656 42.2636L34.526 48.76ZM30.872 52.327L37.0353 63.7732L37.1106 63.7326L37.1854 63.6911L30.872 52.327ZM20.432 52.327L13.9356 63.5874L14.1886 63.7334L14.4479 63.8678L20.432 52.327ZM16.778 48.76L5.41395 55.0734L5.55462 55.3266L5.70644 55.5733L16.778 48.76ZM25.565 4.04203V-8.95797H19.2479L15.3442 -3.99141L25.565 4.04203ZM7.991 26.401L18.0952 34.5806L18.154 34.508L18.2118 34.4345L7.991 26.401ZM2.94499 34.231L-8.68256 28.4173L-8.73141 28.515L-8.77861 28.6135L2.94499 34.231ZM4.24999 55.894L-6.6793 62.9332L-6.60969 63.0413L-6.53796 63.148L4.24999 55.894ZM13.211 63.55L7.69336 75.321L7.80333 75.3726L7.91425 75.422L13.211 63.55ZM38.093 63.55L43.4585 75.3911L43.4997 75.3725L43.5408 75.3535L38.093 63.55ZM47.054 55.894L36.2091 48.7254L36.1945 48.7475L36.18 48.7697L47.054 55.894ZM48.794 35.014L36.8451 40.135L36.8962 40.2541L36.9496 40.3722L48.794 35.014ZM44.444 28.837L35.4035 38.1788L35.5565 38.3269L35.7142 38.4699L44.444 28.837ZM38.354 24.922L33.3093 36.9033L33.4971 36.9824L33.6873 37.0555L38.354 24.922ZM26.087 24.226L22.2639 11.8009L22.1943 11.8223L22.1249 11.8445L26.087 24.226ZM21.476 27.358L12.2836 18.1656L26.597 39.3069L21.476 27.358ZM24.521 26.053L29.642 38.0019L32.294 36.8653L34.2161 34.7135L24.521 26.053ZM44.183 4.04203L53.8781 12.7025L73.2271 -8.95797H44.183V4.04203ZM28.473 43.279C28.473 43.195 28.4816 43.2713 28.4347 43.465C28.386 43.6664 28.2939 43.9251 28.142 44.1984L5.41395 31.5717C3.33477 35.3142 2.47299 39.3384 2.47299 43.279H28.473ZM27.9618 44.5125C27.9032 44.6114 27.7816 44.7877 27.5799 44.9894C27.3759 45.1934 27.149 45.3642 26.9284 45.4914L13.9356 22.9706C10.4035 25.0084 7.60684 27.8613 5.59421 31.2576L27.9618 44.5125ZM26.7453 45.5951C26.5023 45.7301 26.2548 45.8228 26.0375 45.8762C25.8264 45.9281 25.7136 45.926 25.739 45.926V19.926C21.7857 19.926 17.8058 20.8186 14.1186 22.867L26.7453 45.5951ZM25.739 45.926C25.7058 45.926 25.5298 45.9214 25.2546 45.8515C24.9726 45.7798 24.6674 45.6598 24.3756 45.4914L37.3684 22.9706C33.6926 20.85 29.7007 19.926 25.739 19.926V45.926ZM24.5586 45.5951C24.3282 45.467 24.0464 45.2682 23.7676 44.9894C23.4888 44.7106 23.29 44.4288 23.162 44.1984L45.89 31.5717C43.8411 27.8835 40.8735 24.9159 37.1854 22.867L24.5586 45.5951ZM23.3422 44.5125C23.1687 44.2197 23.0505 43.9202 22.9824 43.6564C22.9164 43.4008 22.918 43.2589 22.918 43.279H48.918C48.918 39.1925 47.9597 35.0543 45.7098 31.2576L23.3422 44.5125ZM22.918 43.279C22.918 43.3583 22.9096 43.2531 22.97 43.0153C23.0329 42.7676 23.1505 42.4561 23.3422 42.1326L45.7098 55.3875C47.9927 51.535 48.918 47.3503 48.918 43.279H22.918ZM23.2656 42.2636C23.4115 42.0107 23.6172 41.7359 23.879 41.4803C24.1391 41.2264 24.3846 41.0597 24.5586 40.963L37.1854 63.6911C40.7483 61.7116 43.7037 58.8665 45.7864 55.2564L23.2656 42.2636ZM24.7087 40.8809C24.9783 40.7358 25.2396 40.6432 25.4563 40.5918C25.6666 40.5419 25.7736 40.545 25.739 40.545V66.545C29.5473 66.545 33.419 65.7204 37.0353 63.7732L24.7087 40.8809ZM25.739 40.545C25.648 40.545 25.6937 40.5361 25.8412 40.57C25.9946 40.6052 26.1976 40.6729 26.4161 40.7862L14.4479 63.8678C18.0719 65.747 21.9331 66.545 25.739 66.545V40.545ZM26.9284 41.0666C27.0927 41.1614 27.2834 41.2997 27.4685 41.4803C27.6528 41.6602 27.7772 41.8291 27.8496 41.9468L5.70644 55.5733C7.74624 58.888 10.5238 61.6191 13.9356 63.5874L26.9284 41.0666ZM28.142 42.4467C28.3105 42.7498 28.4017 43.0195 28.4457 43.2042C28.4876 43.3799 28.473 43.4203 28.473 43.279H2.47299C2.47299 47.2081 3.30539 51.278 5.41395 55.0734L28.142 42.4467ZM15.3442 -3.99141L-2.22976 18.3676L18.2118 34.4345L35.7858 12.0755L15.3442 -3.99141ZM-2.11319 18.2215C-4.67295 21.3835 -6.86694 24.786 -8.68256 28.4173L14.5725 40.0448C15.5409 38.108 16.7109 36.2905 18.0952 34.5806L-2.11319 18.2215ZM-8.77861 28.6135C-10.9966 33.2423 -12.056 38.1905 -12.056 43.279H13.944C13.944 41.8716 14.2186 40.7878 14.6686 39.8486L-8.77861 28.6135ZM-12.056 43.279C-12.056 50.1981 -10.5118 56.9828 -6.6793 62.9332L15.1793 48.8548C14.6038 47.9613 13.944 46.3359 13.944 43.279H-12.056ZM-6.53796 63.148C-2.94548 68.4907 1.87307 72.5927 7.69336 75.321L18.7286 51.7791C17.1249 51.0273 15.9695 50.0254 15.0379 48.6401L-6.53796 63.148ZM7.91425 75.422C13.526 77.9257 19.5335 79.073 25.739 79.073V53.073C22.7804 53.073 20.436 52.5383 18.5077 51.678L7.91425 75.422ZM25.739 79.073C31.9085 79.073 37.8836 77.9173 43.4585 75.3911L32.7275 51.7089C30.8784 52.5468 28.6175 53.073 25.739 53.073V79.073ZM43.5408 75.3535C49.4466 72.6277 54.3444 68.488 57.928 63.0184L36.18 48.7697C35.3556 50.028 34.2794 50.9923 32.6452 51.7466L43.5408 75.3535ZM57.8988 63.0627C61.8446 57.0934 63.447 50.2602 63.447 43.279H37.447C37.447 46.2738 36.7874 47.8507 36.2091 48.7254L57.8988 63.0627ZM63.447 43.279C63.447 38.6327 62.608 34.0097 60.6384 29.6558L36.9496 40.3722C37.184 40.8904 37.447 41.7773 37.447 43.279H63.447ZM60.7429 29.8931C59.0063 25.841 56.4945 22.2136 53.1737 19.2042L35.7142 38.4699C36.1055 38.8244 36.4937 39.315 36.8451 40.135L60.7429 29.8931ZM53.4845 19.4952C50.4726 16.5805 46.9666 14.3062 43.0207 12.7885L33.6873 37.0555C34.2654 37.2779 34.8194 37.6136 35.4035 38.1788L53.4845 19.4952ZM43.3987 12.9408C39.6906 11.3795 35.7476 10.53 31.655 10.53V36.53C32.0864 36.53 32.6094 36.6086 33.3093 36.9033L43.3987 12.9408ZM31.655 10.53C28.6275 10.53 25.393 10.8381 22.2639 11.8009L29.9101 36.6512C29.8244 36.6775 29.9104 36.6426 30.2224 36.6036C30.5313 36.565 30.9999 36.53 31.655 36.53V10.53ZM22.1249 11.8445C17.9529 13.1796 14.6903 15.759 12.2836 18.1656L30.6684 36.5504C31.0312 36.1877 31.1961 36.0804 31.1512 36.1108C31.1074 36.1406 30.7378 36.3872 30.0491 36.6075L22.1249 11.8445ZM26.597 39.3069L29.642 38.0019L19.4 14.1041L16.355 15.4091L26.597 39.3069ZM34.2161 34.7135L53.8781 12.7025L34.4879 -4.61846L14.8258 17.3925L34.2161 34.7135ZM44.183 -8.95797H25.565V17.042H44.183V-8.95797ZM62.9702 64.42L53.7778 73.6124L62.9702 64.42ZM74.7152 64.42L84.0794 73.4374L74.7152 64.42ZM74.7152 53.11L65.3511 62.1274L74.7152 53.11ZM62.9702 53.11L72.1626 62.3024L72.1626 62.3024L62.9702 53.11ZM47.6212 58.765C47.6212 64.4356 49.7871 69.6217 53.7778 73.6124L72.1626 55.2276C72.4806 55.5456 72.8985 56.0856 73.2139 56.8449C73.5299 57.6055 73.6212 58.2933 73.6212 58.765H47.6212ZM53.7778 73.6124C57.908 77.7426 63.214 79.769 68.7992 79.769V53.769C69.1253 53.769 69.7303 53.8296 70.4611 54.124C71.2038 54.4233 71.7806 54.8456 72.1626 55.2276L53.7778 73.6124ZM68.7992 79.769C74.3001 79.769 79.8141 77.8667 84.0794 73.4374L65.3511 55.4027C65.8507 54.8838 66.5272 54.4093 67.3078 54.0994C68.0574 53.8017 68.6152 53.769 68.7992 53.769V79.769ZM84.0794 73.4374C87.9557 69.412 89.9772 64.2802 89.9772 58.765H63.9772C63.9772 58.3556 64.0536 57.7236 64.3415 57.0037C64.6308 56.2805 65.0245 55.7419 65.3511 55.4027L84.0794 73.4374ZM89.9772 58.765C89.9772 53.2499 87.9557 48.1181 84.0794 44.0927L65.3511 62.1274C65.0245 61.7882 64.6308 61.2496 64.3415 60.5264C64.0536 59.8064 63.9772 59.1745 63.9772 58.765H89.9772ZM84.0794 44.0927C79.8141 39.6634 74.3001 37.761 68.7992 37.761V63.761C68.6152 63.761 68.0574 63.7283 67.3078 63.4307C66.5272 63.1208 65.8507 62.6462 65.3511 62.1274L84.0794 44.0927ZM68.7992 37.761C63.214 37.761 57.908 39.7875 53.7778 43.9176L72.1626 62.3024C71.7806 62.6844 71.2038 63.1067 70.4611 63.406C69.7303 63.7005 69.1253 63.761 68.7992 63.761V37.761ZM53.7779 43.9176C49.7871 47.9083 47.6212 53.0945 47.6212 58.765H73.6212C73.6212 59.2368 73.5299 59.9246 73.2139 60.6852C72.8985 61.4445 72.4806 61.9845 72.1626 62.3024L53.7779 43.9176ZM103.013 37.885L91.8296 31.2576L91.7372 31.4134L91.6493 31.5717L103.013 37.885ZM106.667 34.231L100.354 22.867L100.262 22.9181L100.171 22.9706L106.667 34.231ZM117.107 34.231L110.611 45.4914L110.702 45.544L110.794 45.5951L117.107 34.231ZM120.761 37.885L109.397 44.1984L109.485 44.3567L109.578 44.5125L120.761 37.885ZM120.761 48.76L109.578 42.1326L109.539 42.1979L109.501 42.2636L120.761 48.76ZM117.107 52.327L123.271 63.7732L123.346 63.7326L123.421 63.6911L117.107 52.327ZM106.667 52.327L100.171 63.5874L100.424 63.7334L100.683 63.8678L106.667 52.327ZM103.013 48.76L91.6493 55.0734L91.79 55.3266L91.9418 55.5733L103.013 48.76ZM111.8 4.04203V-8.95797H105.483L101.58 -3.99141L111.8 4.04203ZM94.2263 26.401L104.331 34.5806L104.389 34.508L104.447 34.4345L94.2263 26.401ZM89.1803 34.231L77.5528 28.4173L77.5039 28.515L77.4567 28.6135L89.1803 34.231ZM90.4853 55.894L79.556 62.9332L79.6257 63.0413L79.6974 63.148L90.4853 55.894ZM99.4464 63.55L93.9287 75.321L94.0387 75.3726L94.1496 75.422L99.4464 63.55ZM124.328 63.55L129.694 75.3911L129.735 75.3725L129.776 75.3535L124.328 63.55ZM133.289 55.894L122.444 48.7254L122.43 48.7475L122.415 48.7697L133.289 55.894ZM135.029 35.014L123.08 40.135L123.132 40.2541L123.185 40.3722L135.029 35.014ZM130.679 28.837L121.639 38.1788L121.792 38.3269L121.95 38.4699L130.679 28.837ZM124.589 24.922L119.545 36.9033L119.732 36.9824L119.923 37.0555L124.589 24.922ZM112.322 24.226L108.499 11.8009L108.43 11.8223L108.36 11.8445L112.322 24.226ZM107.711 27.358L98.519 18.1656L112.832 39.3069L107.711 27.358ZM110.756 26.053L115.877 38.0019L118.529 36.8653L120.451 34.7135L110.756 26.053ZM130.418 4.04203L140.113 12.7025L159.462 -8.95797H130.418V4.04203ZM114.708 43.279C114.708 43.195 114.717 43.2713 114.67 43.465C114.621 43.6664 114.529 43.9251 114.377 44.1984L91.6493 31.5717C89.5701 35.3142 88.7083 39.3384 88.7083 43.279H114.708ZM114.197 44.5125C114.139 44.6114 114.017 44.7877 113.815 44.9894C113.611 45.1934 113.384 45.3642 113.164 45.4914L100.171 22.9706C96.6389 25.0084 93.8422 27.8613 91.8296 31.2576L114.197 44.5125ZM112.981 45.5951C112.738 45.7301 112.49 45.8228 112.273 45.8762C112.062 45.9281 111.949 45.926 111.974 45.926V19.926C108.021 19.926 104.041 20.8186 100.354 22.867L112.981 45.5951ZM111.974 45.926C111.941 45.926 111.765 45.9214 111.49 45.8515C111.208 45.7798 110.903 45.6598 110.611 45.4914L123.604 22.9706C119.928 20.85 115.936 19.926 111.974 19.926V45.926ZM110.794 45.5951C110.564 45.467 110.282 45.2682 110.003 44.9894C109.724 44.7106 109.525 44.4288 109.397 44.1984L132.125 31.5717C130.076 27.8835 127.109 24.9159 123.421 22.867L110.794 45.5951ZM109.578 44.5125C109.404 44.2197 109.286 43.9202 109.218 43.6564C109.152 43.4008 109.153 43.2589 109.153 43.279H135.153C135.153 39.1925 134.195 35.0543 131.945 31.2576L109.578 44.5125ZM109.153 43.279C109.153 43.3583 109.145 43.2531 109.205 43.0153C109.268 42.7676 109.386 42.4561 109.578 42.1326L131.945 55.3875C134.228 51.535 135.153 47.3503 135.153 43.279H109.153ZM109.501 42.2636C109.647 42.0107 109.853 41.7359 110.114 41.4803C110.374 41.2264 110.62 41.0597 110.794 40.963L123.421 63.6911C126.984 61.7116 129.939 58.8665 132.022 55.2564L109.501 42.2636ZM110.944 40.8809C111.214 40.7358 111.475 40.6432 111.692 40.5918C111.902 40.5419 112.009 40.545 111.974 40.545V66.545C115.783 66.545 119.654 65.7204 123.271 63.7732L110.944 40.8809ZM111.974 40.545C111.883 40.545 111.929 40.5361 112.077 40.57C112.23 40.6052 112.433 40.6729 112.651 40.7862L100.683 63.8678C104.307 65.747 108.168 66.545 111.974 66.545V40.545ZM113.164 41.0666C113.328 41.1614 113.519 41.2997 113.704 41.4803C113.888 41.6602 114.013 41.8291 114.085 41.9468L91.9418 55.5733C93.9816 58.888 96.7591 61.6191 100.171 63.5874L113.164 41.0666ZM114.377 42.4467C114.546 42.7498 114.637 43.0195 114.681 43.2042C114.723 43.3799 114.708 43.4203 114.708 43.279H88.7083C88.7083 47.2081 89.5407 51.278 91.6493 55.0734L114.377 42.4467ZM101.58 -3.99141L84.0056 18.3676L104.447 34.4345L122.021 12.0755L101.58 -3.99141ZM84.1222 18.2215C81.5624 21.3835 79.3684 24.786 77.5528 28.4173L100.808 40.0448C101.776 38.108 102.946 36.2905 104.331 34.5806L84.1222 18.2215ZM77.4567 28.6135C75.2388 33.2423 74.1793 38.1905 74.1793 43.279H100.179C100.179 41.8716 100.454 40.7878 100.904 39.8486L77.4567 28.6135ZM74.1793 43.279C74.1793 50.1981 75.7236 56.9828 79.556 62.9332L101.415 48.8548C100.839 47.9613 100.179 46.3359 100.179 43.279H74.1793ZM79.6974 63.148C83.2899 68.4907 88.1084 72.5927 93.9287 75.321L104.964 51.7791C103.36 51.0273 102.205 50.0254 101.273 48.6401L79.6974 63.148ZM94.1496 75.422C99.7613 77.9257 105.769 79.073 111.974 79.073V53.073C109.016 53.073 106.671 52.5383 104.743 51.678L94.1496 75.422ZM111.974 79.073C118.144 79.073 124.119 77.9173 129.694 75.3911L118.963 51.7089C117.114 52.5468 114.853 53.073 111.974 53.073V79.073ZM129.776 75.3535C135.682 72.6277 140.58 68.488 144.163 63.0184L122.415 48.7697C121.591 50.028 120.515 50.9923 118.881 51.7466L129.776 75.3535ZM144.134 63.0627C148.08 57.0934 149.682 50.2602 149.682 43.279H123.682C123.682 46.2738 123.023 47.8507 122.444 48.7254L144.134 63.0627ZM149.682 43.279C149.682 38.6327 148.843 34.0097 146.874 29.6558L123.185 40.3722C123.419 40.8904 123.682 41.7773 123.682 43.279H149.682ZM146.978 29.8931C145.242 25.841 142.73 22.2136 139.409 19.2042L121.95 38.4699C122.341 38.8244 122.729 39.315 123.08 40.135L146.978 29.8931ZM139.72 19.4952C136.708 16.5805 133.202 14.3062 129.256 12.7885L119.923 37.0555C120.501 37.2779 121.055 37.6136 121.639 38.1788L139.72 19.4952ZM129.634 12.9408C125.926 11.3795 121.983 10.53 117.89 10.53V36.53C118.322 36.53 118.845 36.6086 119.545 36.9033L129.634 12.9408ZM117.89 10.53C114.863 10.53 111.628 10.8381 108.499 11.8009L116.145 36.6512C116.06 36.6775 116.146 36.6426 116.458 36.6036C116.767 36.565 117.235 36.53 117.89 36.53V10.53ZM108.36 11.8445C104.188 13.1796 100.926 15.759 98.519 18.1656L116.904 36.5504C117.267 36.1877 117.431 36.0804 117.387 36.1108C117.343 36.1406 116.973 36.3872 116.284 36.6075L108.36 11.8445ZM112.832 39.3069L115.877 38.0019L105.635 14.1041L102.59 15.4091L112.832 39.3069ZM120.451 34.7135L140.113 12.7025L120.723 -4.61846L101.061 17.3925L120.451 34.7135ZM130.418 -8.95797H111.8V17.042H130.418V-8.95797ZM173.549 3.78102V-9.21897H160.549V3.78102H173.549ZM173.549 64.681H160.549V77.681H173.549V64.681ZM188.774 64.681V77.681H201.774V64.681H188.774ZM188.774 3.78102H201.774V-9.21897H188.774V3.78102ZM209.48 3.78102V-9.21897H203.522L199.632 -4.70602L209.48 3.78102ZM184.511 32.752L174.663 24.265L167.598 32.4621L174.378 40.8966L184.511 32.752ZM210.176 64.681L200.043 72.8256L203.946 77.681H210.176V64.681ZM228.011 64.681V77.681H255.138L238.143 56.5368L228.011 64.681ZM201.998 32.317L192.17 23.8075L185.07 32.0073L191.865 40.4613L201.998 32.317ZM226.706 3.78102L236.534 12.2906L255.158 -9.21897H226.706V3.78102ZM160.549 3.78102V64.681H186.549V3.78102H160.549ZM173.549 77.681H188.774V51.681H173.549V77.681ZM201.774 64.681V3.78102H175.774V64.681H201.774ZM188.774 -9.21897H173.549V16.781H188.774V-9.21897ZM199.632 -4.70602L174.663 24.265L194.358 41.2391L219.327 12.2681L199.632 -4.70602ZM174.378 40.8966L200.043 72.8256L220.308 56.5364L194.643 24.6074L174.378 40.8966ZM210.176 77.681H228.011V51.681H210.176V77.681ZM238.143 56.5368L212.13 24.1728L191.865 40.4613L217.878 72.8253L238.143 56.5368ZM211.826 40.8266L236.534 12.2906L216.878 -4.72851L192.17 23.8075L211.826 40.8266ZM226.706 -9.21897H209.48V16.781H226.706V-9.21897ZM293.564 38.494L281.676 43.7535L295.136 74.1784L305.869 42.6882L293.564 38.494ZM276.86 0.736029L288.749 -4.52343L276.798 -31.5374L264.952 -4.4775L276.86 0.736029ZM260.33 38.494L248.044 42.7433L258.909 74.1562L272.239 43.7076L260.33 38.494ZM248.324 3.78102L260.61 -0.468239L257.584 -9.21897H248.324V3.78102ZM230.924 3.78102V-9.21897H211.564L218.892 8.70135L230.924 3.78102ZM257.285 68.248L245.253 73.1684L255.731 98.7944L268.757 74.3643L257.285 68.248ZM276.86 31.534L288.32 25.3967L276.835 3.95034L265.389 25.4178L276.86 31.534ZM296.522 68.248L285.062 74.3854L298.102 98.7331L308.555 73.1684L296.522 68.248ZM322.883 3.78102L334.916 8.70136L342.244 -9.21897H322.883V3.78102ZM305.396 3.78102V-9.21897H296.093L293.092 -0.413107L305.396 3.78102ZM305.453 33.2346L288.749 -4.52343L264.972 5.99549L281.676 43.7535L305.453 33.2346ZM264.952 -4.4775L248.422 33.2805L272.239 43.7076L288.769 5.94955L264.952 -4.4775ZM272.616 34.2448L260.61 -0.468239L236.038 8.03029L248.044 42.7433L272.616 34.2448ZM248.324 -9.21897H230.924V16.781H248.324V-9.21897ZM218.892 8.70135L245.253 73.1684L269.318 63.3277L242.957 -1.1393L218.892 8.70135ZM268.757 74.3643L288.332 37.6503L265.389 25.4178L245.814 62.1318L268.757 74.3643ZM265.4 37.6714L285.062 74.3854L307.982 62.1107L288.32 25.3967L265.4 37.6714ZM308.555 73.1684L334.916 8.70136L310.851 -1.13931L284.49 63.3277L308.555 73.1684ZM322.883 -9.21897H305.396V16.781H322.883V-9.21897ZM293.092 -0.413107L281.26 34.2999L305.869 42.6882L317.701 7.97516L293.092 -0.413107Z" fill="#4195CE"/>
</svg>
