<svg width="56" height="55" viewBox="0 0 56 55" fill="none" xmlns="http://www.w3.org/2000/svg">
<path d="M42.0204 54.5376C39.1012 54.5376 36.0271 53.8626 32.8496 52.5626C29.7496 51.2876 26.6237 49.5376 23.5754 47.4126C20.5271 45.2626 17.6079 42.8376 14.8696 40.2126C12.1312 37.5376 9.65124 34.7126 7.45541 31.8126C5.23374 28.8126 3.45124 25.8376 2.18541 22.9126C0.842077 19.8376 0.17041 16.8376 0.17041 14.0126C0.17041 12.0626 0.532077 10.2126 1.22958 8.4876C1.97874 6.6876 3.11541 5.0626 4.69124 3.6376C6.68041 1.7626 8.95374 0.787598 11.3821 0.787598C12.3896 0.787598 13.4229 1.0126 14.3012 1.4126C15.3087 1.8626 16.1612 2.5376 16.7812 3.4376L22.7746 11.6126C23.3171 12.3376 23.7304 13.0376 24.0146 13.7376C24.3504 14.4876 24.5312 15.2376 24.5312 15.9626C24.5312 16.9126 24.2471 17.8376 23.7046 18.7126C23.3171 19.3876 22.7229 20.1126 21.9737 20.8376L20.2171 22.6126C20.2429 22.6876 20.2687 22.7376 20.2946 22.7876C20.6046 23.3126 21.2246 24.2126 22.4129 25.5626C23.6529 26.9626 24.8671 28.2126 26.0554 29.4126C27.6054 30.8876 28.8454 32.0126 30.0337 32.9626C31.5062 34.1626 32.4621 34.7626 33.0304 35.0376L32.9787 35.1626L34.8646 33.3626C35.6654 32.5876 36.4404 32.0126 37.1896 31.6376C38.6104 30.7876 40.4187 30.6376 42.2271 31.3626C42.8987 31.6376 43.6221 32.0126 44.3971 32.5376L52.9737 38.4376C53.9037 39.0626 54.6271 39.8626 55.0404 40.8126C55.4279 41.7626 55.6087 42.6376 55.6087 43.5126C55.6087 44.7126 55.3246 45.9126 54.7821 47.0376C54.2396 48.1626 53.5679 49.1376 52.7154 50.0376C51.2429 51.6126 49.6412 52.7376 47.7812 53.4626C45.9987 54.1626 44.0612 54.5376 42.0204 54.5376ZM11.3821 4.5376C9.96124 4.5376 8.64374 5.1376 7.37791 6.3376C6.21541 7.4126 5.36291 8.5876 4.84624 9.8626C4.30374 11.1626 4.04541 12.5376 4.04541 14.0126C4.04541 16.3376 4.61374 18.8626 5.75041 21.4626C6.91291 24.1126 8.54041 26.8626 10.6071 29.6126C12.6737 32.3626 15.0246 35.0376 17.6079 37.5626C20.1912 40.0376 22.9812 42.3376 25.8487 44.3626C28.6387 46.3376 31.5062 47.9376 34.3479 49.0876C38.7654 50.9126 42.8987 51.3376 46.3087 49.9626C47.6262 49.4376 48.7887 48.6376 49.8479 47.4876C50.4421 46.8626 50.9071 46.1876 51.2946 45.3876C51.6046 44.7626 51.7596 44.1126 51.7596 43.4626C51.7596 43.0626 51.6821 42.6626 51.4754 42.2126C51.4237 42.0876 51.2429 41.7876 50.7521 41.4626L42.1754 35.5626C41.6587 35.2126 41.1937 34.9626 40.7546 34.7876C40.0829 34.5376 39.6437 34.5126 39.0754 34.8626C38.5587 35.1126 38.0937 35.4876 37.5771 35.9876L35.6137 37.8626C34.6062 38.8126 33.0562 39.0376 31.8679 38.6126L31.1704 38.3126C30.1112 37.7626 28.8712 36.9126 27.5021 35.7876C26.2362 34.7626 24.9446 33.5876 23.2912 32.0126C21.9996 30.7376 20.7596 29.4126 19.4421 27.9626C18.2279 26.5876 17.3496 25.4126 16.8071 24.4376L16.4712 23.6876C16.3162 23.1376 16.2646 22.8126 16.2646 22.4626C16.2646 21.5626 16.6004 20.7626 17.2462 20.1376L19.1837 18.1876C19.7004 17.6876 20.0879 17.2126 20.3462 16.7876C20.5529 16.4626 20.6304 16.1876 20.6304 15.9376C20.6304 15.7376 20.5529 15.4376 20.4237 15.1376C20.2687 14.7126 19.9846 14.2876 19.6229 13.7876L13.6296 5.5876C13.3712 5.2376 13.0612 4.9876 12.6737 4.8126C12.2604 4.6376 11.8212 4.5376 11.3821 4.5376ZM32.9787 35.1876L32.5654 36.8876L33.2629 35.1376C33.1596 35.1126 33.0562 35.1376 32.9787 35.1876Z" fill="#4195CE"/>
</svg>
