<svg width="63" height="61" viewBox="0 0 63 61" fill="none" xmlns="http://www.w3.org/2000/svg">
<path d="M46.0204 57.5376C43.1012 57.5376 40.0271 56.8626 36.8496 55.5626C33.7496 54.2876 30.6237 52.5376 27.5754 50.4126C24.5271 48.2626 21.6079 45.8376 18.8696 43.2126C16.1312 40.5376 13.6512 37.7126 11.4554 34.8126C9.23374 31.8126 7.45124 28.8376 6.18541 25.9126C4.84208 22.8376 4.17041 19.8376 4.17041 17.0126C4.17041 15.0626 4.53208 13.2126 5.22958 11.4876C5.97874 9.6876 7.11541 8.0626 8.69124 6.6376C10.6804 4.7626 12.9537 3.7876 15.3821 3.7876C16.3896 3.7876 17.4229 4.0126 18.3012 4.4126C19.3087 4.8626 20.1612 5.5376 20.7812 6.4376L26.7746 14.6126C27.3171 15.3376 27.7304 16.0376 28.0146 16.7376C28.3504 17.4876 28.5312 18.2376 28.5312 18.9626C28.5312 19.9126 28.2471 20.8376 27.7046 21.7126C27.3171 22.3876 26.7229 23.1126 25.9737 23.8376L24.2171 25.6126C24.2429 25.6876 24.2687 25.7376 24.2946 25.7876C24.6046 26.3126 25.2246 27.2126 26.4129 28.5626C27.6529 29.9626 28.8671 31.2126 30.0554 32.4126C31.6054 33.8876 32.8454 35.0126 34.0337 35.9626C35.5062 37.1626 36.4621 37.7626 37.0304 38.0376L36.9787 38.1626L38.8646 36.3626C39.6654 35.5876 40.4404 35.0126 41.1896 34.6376C42.6104 33.7876 44.4187 33.6376 46.2271 34.3626C46.8987 34.6376 47.6221 35.0126 48.3971 35.5376L56.9737 41.4376C57.9037 42.0626 58.6271 42.8626 59.0404 43.8126C59.4279 44.7626 59.6087 45.6376 59.6087 46.5126C59.6087 47.7126 59.3246 48.9126 58.7821 50.0376C58.2396 51.1626 57.5679 52.1376 56.7154 53.0376C55.2429 54.6126 53.6412 55.7376 51.7812 56.4626C49.9987 57.1626 48.0612 57.5376 46.0204 57.5376ZM15.3821 7.5376C13.9612 7.5376 12.6437 8.1376 11.3779 9.3376C10.2154 10.4126 9.36291 11.5876 8.84624 12.8626C8.30374 14.1626 8.04541 15.5376 8.04541 17.0126C8.04541 19.3376 8.61374 21.8626 9.75041 24.4626C10.9129 27.1126 12.5404 29.8626 14.6071 32.6126C16.6737 35.3626 19.0246 38.0376 21.6079 40.5626C24.1912 43.0376 26.9812 45.3376 29.8487 47.3626C32.6387 49.3376 35.5062 50.9376 38.3479 52.0876C42.7654 53.9126 46.8987 54.3376 50.3087 52.9626C51.6262 52.4376 52.7887 51.6376 53.8479 50.4876C54.4421 49.8626 54.9071 49.1876 55.2946 48.3876C55.6046 47.7626 55.7596 47.1126 55.7596 46.4626C55.7596 46.0626 55.6821 45.6626 55.4754 45.2126C55.4237 45.0876 55.2429 44.7876 54.7521 44.4626L46.1754 38.5626C45.6587 38.2126 45.1937 37.9626 44.7546 37.7876C44.0829 37.5376 43.6437 37.5126 43.0754 37.8626C42.5587 38.1126 42.0937 38.4876 41.5771 38.9876L39.6137 40.8626C38.6062 41.8126 37.0562 42.0376 35.8679 41.6126L35.1704 41.3126C34.1112 40.7626 32.8712 39.9126 31.5021 38.7876C30.2362 37.7626 28.9446 36.5876 27.2912 35.0126C25.9996 33.7376 24.7596 32.4126 23.4421 30.9626C22.2279 29.5876 21.3496 28.4126 20.8071 27.4376L20.4712 26.6876C20.3162 26.1376 20.2646 25.8126 20.2646 25.4626C20.2646 24.5626 20.6004 23.7626 21.2462 23.1376L23.1837 21.1876C23.7004 20.6876 24.0879 20.2126 24.3462 19.7876C24.5529 19.4626 24.6304 19.1876 24.6304 18.9376C24.6304 18.7376 24.5529 18.4376 24.4237 18.1376C24.2687 17.7126 23.9846 17.2876 23.6229 16.7876L17.6296 8.5876C17.3712 8.2376 17.0612 7.9876 16.6737 7.8126C16.2604 7.6376 15.8212 7.5376 15.3821 7.5376ZM36.9787 38.1876L36.5654 39.8876L37.2629 38.1376C37.1596 38.1126 37.0562 38.1376 36.9787 38.1876Z" fill="#4195CE"/>
<path d="M44.8589 22.4624C44.3681 22.4624 43.8773 22.2874 43.4898 21.9124L38.3231 16.9124C37.5739 16.1874 37.5739 14.9874 38.3231 14.2624C39.0723 13.5374 40.3123 13.5374 41.0614 14.2624L44.8589 17.9374L53.8231 9.2874C54.5723 8.5624 55.8123 8.5624 56.5614 9.2874C57.3106 10.0124 57.3106 11.2124 56.5614 11.9374L46.2281 21.9374C45.8406 22.2624 45.3498 22.4624 44.8589 22.4624Z" fill="#4195CE"/>
</svg>
