<svg width="48" height="48" viewBox="0 0 48 48" fill="none" xmlns="http://www.w3.org/2000/svg">
<path d="M34.7574 44.6574C32.5445 44.6574 30.2141 44.1286 27.8054 43.1103C25.4554 42.1116 23.0858 40.7407 20.7749 39.0761C18.4641 37.392 16.2512 35.4924 14.1754 33.4361C12.0995 31.3407 10.2195 29.1278 8.55494 26.8561C6.87077 24.5061 5.51952 22.1757 4.55994 19.8845C3.54161 17.4757 3.03244 15.1257 3.03244 12.9128C3.03244 11.3853 3.30661 9.93614 3.83536 8.58489C4.40327 7.17489 5.26494 5.90197 6.45952 4.78572C7.96744 3.31697 9.69077 2.55322 11.5316 2.55322C12.2954 2.55322 13.0787 2.72947 13.7445 3.04281C14.5083 3.39531 15.1545 3.92406 15.6245 4.62906L20.1679 11.0328C20.5791 11.6007 20.8924 12.1491 21.1079 12.6974C21.3624 13.2849 21.4995 13.8724 21.4995 14.4403C21.4995 15.1845 21.2841 15.9091 20.8729 16.5945C20.5791 17.1232 20.1287 17.6911 19.5608 18.2591L18.2291 19.6495C18.2487 19.7082 18.2683 19.7474 18.2879 19.7866C18.5229 20.1978 18.9929 20.9028 19.8937 21.9603C20.8337 23.057 21.7541 24.0361 22.6549 24.9761C23.8299 26.1316 24.7699 27.0128 25.6708 27.757C26.787 28.697 27.5116 29.167 27.9424 29.3824L27.9033 29.4803L29.3329 28.0703C29.9399 27.4632 30.5274 27.0128 31.0954 26.7191C32.1724 26.0532 33.5433 25.9357 34.9141 26.5036C35.4233 26.7191 35.9716 27.0128 36.5591 27.4241L43.0608 32.0457C43.7658 32.5353 44.3141 33.162 44.6274 33.9061C44.9212 34.6503 45.0583 35.3357 45.0583 36.0211C45.0583 36.9611 44.8429 37.9011 44.4316 38.7824C44.0204 39.6636 43.5112 40.4274 42.8649 41.1324C41.7487 42.3661 40.5345 43.2474 39.1245 43.8153C37.7733 44.3636 36.3045 44.6574 34.7574 44.6574ZM11.5316 5.49072C10.4545 5.49072 9.45577 5.96072 8.49619 6.90072C7.61494 7.74281 6.96869 8.66322 6.57702 9.66197C6.16577 10.6803 5.96994 11.7574 5.96994 12.9128C5.96994 14.7341 6.40077 16.712 7.26244 18.7486C8.14369 20.8245 9.37744 22.9786 10.9441 25.1328C12.5108 27.287 14.2929 29.3824 16.2512 31.3603C18.2095 33.2991 20.3245 35.1007 22.4983 36.687C24.6133 38.2341 26.787 39.4874 28.9412 40.3882C32.2899 41.8178 35.4233 42.1507 38.0083 41.0736C39.007 40.6624 39.8883 40.0357 40.6912 39.1349C41.1416 38.6453 41.4941 38.1166 41.7879 37.4899C42.0229 37.0003 42.1404 36.4911 42.1404 35.982C42.1404 35.6686 42.0816 35.3553 41.9249 35.0028C41.8858 34.9049 41.7487 34.6699 41.3766 34.4153L34.8749 29.7936C34.4833 29.5195 34.1308 29.3236 33.7979 29.1866C33.2887 28.9907 32.9558 28.9711 32.5249 29.2453C32.1333 29.4411 31.7808 29.7349 31.3891 30.1266L29.9008 31.5953C29.137 32.3395 27.962 32.5157 27.0612 32.1828L26.5324 31.9478C25.7295 31.517 24.7895 30.8511 23.7516 29.9699C22.792 29.167 21.8129 28.2466 20.5595 27.0128C19.5804 26.0141 18.6404 24.9761 17.6416 23.8403C16.7212 22.7632 16.0554 21.8428 15.6441 21.0791L15.3895 20.4916C15.272 20.0607 15.2329 19.8061 15.2329 19.532C15.2329 18.827 15.4874 18.2003 15.977 17.7107L17.4458 16.1832C17.8374 15.7916 18.1312 15.4195 18.327 15.0866C18.4837 14.832 18.5424 14.6166 18.5424 14.4207C18.5424 14.2641 18.4837 14.0291 18.3858 13.7941C18.2683 13.4611 18.0529 13.1282 17.7787 12.7366L13.2354 6.31322C13.0395 6.03906 12.8045 5.84322 12.5108 5.70614C12.1974 5.56906 11.8645 5.49072 11.5316 5.49072ZM27.9033 29.4999L27.5899 30.8316L28.1187 29.4607C28.0404 29.4411 27.962 29.4607 27.9033 29.4999Z" fill="#FFD233"/>
<path d="M33.877 17.1819C33.5049 17.1819 33.1328 17.0448 32.8391 16.7511L28.9224 12.8344C28.3545 12.2665 28.3545 11.3265 28.9224 10.7586C29.4903 10.1907 30.4303 10.1907 30.9982 10.7586L33.877 13.6373L40.6724 6.86148C41.2403 6.29357 42.1803 6.29357 42.7482 6.86148C43.3161 7.4294 43.3161 8.3694 42.7482 8.93732L34.9149 16.7707C34.6211 17.0252 34.2491 17.1819 33.877 17.1819Z" fill="#FFD233"/>
</svg>
