<svg width="48" height="48" viewBox="0 0 48 48" fill="none" xmlns="http://www.w3.org/2000/svg">
<path d="M34.7574 44.7131C32.5444 44.7131 30.214 44.1843 27.8053 43.166C25.4553 42.1672 23.0857 40.7964 20.7748 39.1318C18.464 37.4476 16.2511 35.5481 14.1753 33.4918C12.0994 31.3964 10.2194 29.1835 8.55485 26.9118C6.87068 24.5618 5.51943 22.2314 4.55985 19.9401C3.54152 17.5314 3.03235 15.1814 3.03235 12.9685C3.03235 11.441 3.30652 9.9918 3.83527 8.64055C4.40318 7.23055 5.26485 5.95764 6.45943 4.84139C7.96735 3.37264 9.69068 2.60889 11.5315 2.60889C12.2953 2.60889 13.0786 2.78514 13.7444 3.09847C14.5082 3.45097 15.1544 3.97972 15.6244 4.68472L20.1678 11.0885C20.579 11.6564 20.8923 12.2047 21.1078 12.7531C21.3623 13.3406 21.4994 13.9281 21.4994 14.496C21.4994 15.2401 21.284 15.9647 20.8728 16.6501C20.579 17.1789 20.1286 17.7468 19.5607 18.3147L18.229 19.7051C18.2486 19.7639 18.2682 19.8031 18.2878 19.8422C18.5228 20.2535 18.9928 20.9585 19.8936 22.016C20.8336 23.1126 21.754 24.0918 22.6549 25.0318C23.8298 26.1872 24.7698 27.0685 25.6707 27.8126C26.7869 28.7526 27.5115 29.2226 27.9424 29.4381L27.9032 29.536L29.3328 28.126C29.9398 27.5189 30.5273 27.0685 31.0953 26.7747C32.1723 26.1089 33.5432 25.9914 34.914 26.5593C35.4232 26.7747 35.9715 27.0685 36.559 27.4797L43.0607 32.1014C43.7657 32.591 44.314 33.2176 44.6273 33.9618C44.9211 34.706 45.0582 35.3914 45.0582 36.0768C45.0582 37.0168 44.8428 37.9568 44.4315 38.8381C44.0203 39.7193 43.5111 40.4831 42.8648 41.1881C41.7486 42.4218 40.5344 43.3031 39.1244 43.871C37.7732 44.4193 36.3044 44.7131 34.7574 44.7131ZM11.5315 5.54639C10.4544 5.54639 9.45568 6.01639 8.4961 6.95639C7.61485 7.79847 6.9686 8.71889 6.57693 9.71764C6.16568 10.736 5.96985 11.8131 5.96985 12.9685C5.96985 14.7897 6.40068 16.7676 7.26235 18.8043C8.1436 20.8801 9.37735 23.0343 10.944 25.1885C12.5107 27.3426 14.2928 29.4381 16.2511 31.416C18.2094 33.3547 20.3244 35.1564 22.4982 36.7426C24.6132 38.2897 26.7869 39.5431 28.9411 40.4439C32.2898 41.8735 35.4232 42.2064 38.0082 41.1293C39.0069 40.7181 39.8882 40.0914 40.6911 39.1906C41.1415 38.701 41.494 38.1722 41.7878 37.5456C42.0228 37.056 42.1403 36.5468 42.1403 36.0376C42.1403 35.7243 42.0815 35.411 41.9249 35.0585C41.8857 34.9606 41.7486 34.7256 41.3765 34.471L34.8748 29.8493C34.4832 29.5751 34.1307 29.3793 33.7978 29.2422C33.2886 29.0464 32.9557 29.0268 32.5248 29.301C32.1332 29.4968 31.7807 29.7906 31.389 30.1822L29.9007 31.651C29.1369 32.3951 27.9619 32.5714 27.0611 32.2385L26.5323 32.0035C25.7294 31.5726 24.7894 30.9068 23.7515 30.0256C22.7919 29.2226 21.8128 28.3022 20.5594 27.0685C19.5803 26.0697 18.6403 25.0318 17.6415 23.896C16.7211 22.8189 16.0553 21.8985 15.644 21.1347L15.3894 20.5472C15.2719 20.1164 15.2328 19.8618 15.2328 19.5876C15.2328 18.8826 15.4873 18.256 15.9769 17.7664L17.4457 16.2389C17.8373 15.8472 18.1311 15.4751 18.3269 15.1422C18.4836 14.8876 18.5423 14.6722 18.5423 14.4764C18.5423 14.3197 18.4836 14.0847 18.3857 13.8497C18.2682 13.5168 18.0528 13.1839 17.7786 12.7922L13.2353 6.36889C13.0394 6.09472 12.8044 5.89889 12.5107 5.7618C12.1973 5.62472 11.8644 5.54639 11.5315 5.54639ZM27.9032 29.5556L27.5898 30.8872L28.1186 29.5164C28.0403 29.4968 27.9619 29.5164 27.9032 29.5556Z" fill="#FFD233"/>
<path d="M33.877 17.2373C33.5049 17.2373 33.1328 17.1002 32.8391 16.8065L28.9224 12.8898C28.3545 12.3219 28.3545 11.3819 28.9224 10.814C29.4903 10.2461 30.4303 10.2461 30.9982 10.814L33.877 13.6927L40.6724 6.9169C41.2403 6.34899 42.1803 6.34899 42.7482 6.9169C43.3161 7.48482 43.3161 8.42482 42.7482 8.99274L34.9149 16.8261C34.6211 17.0807 34.2491 17.2373 33.877 17.2373Z" fill="#FFD233"/>
</svg>
