<svg width="31" height="31" viewBox="0 0 31 31" fill="none" xmlns="http://www.w3.org/2000/svg">
<path d="M22.5396 29.3854C21.08 29.3854 19.5429 29.0367 17.9541 28.365C16.4041 27.7063 14.8412 26.8021 13.3171 25.7042C11.7929 24.5933 10.3333 23.3404 8.96415 21.9842C7.59498 20.6021 6.35498 19.1425 5.25706 17.6442C4.14623 16.0942 3.25498 14.5571 2.62206 13.0458C1.9504 11.4571 1.61456 9.90709 1.61456 8.44751C1.61456 7.44001 1.7954 6.48418 2.14415 5.59293C2.51873 4.66293 3.08706 3.82334 3.87498 3.08709C4.86956 2.11834 6.00623 1.61459 7.2204 1.61459C7.72415 1.61459 8.24081 1.73084 8.67998 1.93751C9.18373 2.17001 9.60998 2.51876 9.91998 2.98376L12.9166 7.20751C13.1879 7.58209 13.3946 7.94376 13.5366 8.30543C13.7046 8.69293 13.795 9.08043 13.795 9.45501C13.795 9.94584 13.6529 10.4238 13.3816 10.8758C13.1879 11.2246 12.8908 11.5992 12.5162 11.9738L11.6379 12.8908C11.6508 12.9296 11.6637 12.9554 11.6766 12.9813C11.8316 13.2525 12.1416 13.7175 12.7358 14.415C13.3558 15.1383 13.9629 15.7842 14.5571 16.4042C15.3321 17.1663 15.9521 17.7475 16.5462 18.2383C17.2825 18.8583 17.7604 19.1683 18.0446 19.3104L18.0187 19.375L18.9616 18.445C19.3621 18.0446 19.7496 17.7475 20.1241 17.5538C20.8346 17.1146 21.7387 17.0371 22.6429 17.4117C22.9787 17.5538 23.3404 17.7475 23.7279 18.0188L28.0162 21.0671C28.4812 21.39 28.8429 21.8033 29.0496 22.2942C29.2433 22.785 29.3337 23.2371 29.3337 23.6892C29.3337 24.3092 29.1916 24.9292 28.9204 25.5104C28.6491 26.0917 28.3133 26.5954 27.8871 27.0604C27.1508 27.8742 26.35 28.4554 25.42 28.83C24.5287 29.1917 23.56 29.3854 22.5396 29.3854ZM7.2204 3.55209C6.50998 3.55209 5.85123 3.86209 5.21831 4.48209C4.63706 5.03751 4.21081 5.64459 3.95248 6.30334C3.68123 6.97501 3.55206 7.68543 3.55206 8.44751C3.55206 9.64876 3.83623 10.9533 4.40456 12.2967C4.98581 13.6658 5.79956 15.0867 6.8329 16.5075C7.86623 17.9283 9.04165 19.3104 10.3333 20.615C11.625 21.8938 13.02 23.0821 14.4537 24.1283C15.8487 25.1488 17.2825 25.9754 18.7033 26.5696C20.9121 27.5125 22.9787 27.7321 24.6837 27.0217C25.3425 26.7504 25.9237 26.3371 26.4533 25.7429C26.7504 25.42 26.9829 25.0713 27.1766 24.6579C27.3316 24.335 27.4091 23.9992 27.4091 23.6633C27.4091 23.4567 27.3704 23.25 27.2671 23.0175C27.2412 22.9529 27.1508 22.7979 26.9054 22.63L22.6171 19.5817C22.3587 19.4008 22.1262 19.2717 21.9066 19.1813C21.5708 19.0521 21.3512 19.0392 21.0671 19.22C20.8087 19.3492 20.5762 19.5429 20.3179 19.8013L19.3362 20.77C18.8325 21.2608 18.0575 21.3771 17.4633 21.1575L17.1146 21.0025C16.585 20.7183 15.965 20.2792 15.2804 19.6979C14.6475 19.1683 14.0016 18.5613 13.175 17.7475C12.5291 17.0888 11.9091 16.4042 11.2504 15.655C10.6433 14.9446 10.2041 14.3375 9.9329 13.8338L9.76498 13.4463C9.68748 13.1621 9.66165 12.9942 9.66165 12.8133C9.66165 12.3483 9.82956 11.935 10.1525 11.6121L11.1212 10.6046C11.3796 10.3463 11.5733 10.1008 11.7025 9.88126C11.8058 9.71334 11.8446 9.57126 11.8446 9.44209C11.8446 9.33876 11.8058 9.18376 11.7412 9.02876C11.6637 8.80918 11.5216 8.58959 11.3408 8.33126L8.34415 4.09459C8.21498 3.91376 8.05998 3.78459 7.86623 3.69418C7.65956 3.60376 7.43998 3.55209 7.2204 3.55209ZM18.0187 19.3879L17.8121 20.2663L18.1608 19.3621C18.1091 19.3492 18.0575 19.3621 18.0187 19.3879Z" fill="#FFC700"/>
<path d="M21.9588 11.2632C21.7134 11.2632 21.468 11.1728 21.2742 10.9791L18.6909 8.39572C18.3163 8.02114 18.3163 7.40114 18.6909 7.02656C19.0655 6.65197 19.6855 6.65197 20.0601 7.02656L21.9588 8.92531L26.4409 4.45614C26.8155 4.08156 27.4355 4.08156 27.8101 4.45614C28.1847 4.83072 28.1847 5.45072 27.8101 5.82531L22.6434 10.992C22.4497 11.1599 22.2042 11.2632 21.9588 11.2632Z" fill="#FFC700"/>
</svg>
