<svg width="62" height="56" viewBox="0 0 62 56" fill="none" xmlns="http://www.w3.org/2000/svg">
<path d="M23.0486 23.1237C22.5676 22.9142 22.0083 23.1335 21.7983 23.614C20.3915 26.8309 20.6926 30.5392 22.6003 33.4873C24.5079 36.4348 27.7676 38.2288 31.2788 38.2636C34.7896 38.2979 38.0836 36.5684 40.0493 33.659C42.0147 30.7492 42.3887 27.0476 41.0456 23.8037C39.7024 20.5592 36.8215 18.2055 33.3743 17.5366C29.9276 16.8674 26.3748 17.9726 23.9159 20.4791C23.5575 20.8549 23.5677 21.4491 23.9384 21.8125C24.3095 22.1764 24.9037 22.1747 25.2726 21.8091C27.2774 19.7687 30.1723 18.8705 32.9799 19.4172C35.7879 19.9638 38.1341 21.8825 39.2274 24.5256C40.3207 27.1691 40.0154 30.1844 38.414 32.5547C36.813 34.9251 34.1292 36.3343 31.269 36.3064C28.4084 36.2789 25.7526 34.8182 24.1974 32.4174C22.6427 30.0166 22.3953 26.9956 23.5396 24.3742C23.7491 23.8933 23.529 23.3334 23.0485 23.1239L23.0486 23.1237Z" fill="white"/>
<path d="M4.5882 31.5751L10.0775 32.6731V32.6735C10.4863 34.4284 11.1106 36.1257 11.9363 37.7272C12.047 37.9592 12.2463 38.1364 12.4898 38.2187C12.7328 38.301 12.9991 38.2815 13.2277 38.1644C13.4559 38.0469 13.6272 37.8425 13.7027 37.597C13.7778 37.3514 13.7502 37.0859 13.6264 36.8611C12.7833 35.2262 12.1713 33.4819 11.8083 31.6786C11.7332 31.3024 11.4389 31.0081 11.0627 30.933L5.72823 29.8651V25.7233L11.0652 24.6592C11.4422 24.5842 11.7361 24.2894 11.8112 23.9124C12.3193 21.3394 13.335 18.8935 14.7991 16.7174C15.0128 16.3976 15.0128 15.9803 14.7991 15.6609L11.776 11.1216L14.7057 8.19196L19.241 11.2159C19.5608 11.4296 19.9777 11.4296 20.2975 11.2159C22.4732 9.75061 24.9194 8.73362 27.4925 8.2242C27.8696 8.14956 28.1643 7.85523 28.2394 7.47862L29.3073 2.14418H33.4491L34.5132 7.48112C34.5882 7.85816 34.883 8.15206 35.26 8.22712C36.7321 8.51849 38.1665 8.97694 39.535 9.59317C40.0117 9.80056 40.5669 9.58554 40.7802 9.11138C40.9931 8.63723 40.7853 8.07953 40.3137 7.86032C39.0087 7.2725 37.6486 6.81616 36.2537 6.4972L35.1591 1.00414C35.0687 0.561799 34.6798 0.244141 34.2281 0.244141H28.5281C28.0765 0.244141 27.6876 0.561799 27.5972 1.00414L26.4988 6.4959C24.1158 7.04003 21.8425 7.98409 19.775 9.28825L15.1111 6.17996C14.7345 5.92846 14.2327 5.97808 13.9125 6.29871L9.8827 10.3286C9.56208 10.6488 9.51245 11.1505 9.76394 11.5271L12.8722 16.1905V16.191C11.5681 18.2585 10.624 20.5317 10.0799 22.9148L4.58813 24.0132C4.14578 24.1035 3.82812 24.4925 3.82812 24.9441V30.6441C3.82812 31.0958 4.14578 31.4847 4.58813 31.575L4.5882 31.5751Z" fill="white"/>
<path d="M43.5154 11.2158L48.0508 8.19188L50.9805 11.1216L47.9565 15.6569C47.7428 15.9767 47.7428 16.3936 47.9565 16.7134C49.4218 18.889 50.4388 21.3353 50.9482 23.9084C51.0229 24.2854 51.3172 24.5802 51.6938 24.6553L57.0282 25.7232V29.8649L51.6913 30.929C51.3147 31.0041 51.0204 31.2984 50.9453 31.6746C50.5827 33.4783 49.9703 35.2223 49.1263 36.8572C49.0025 37.0819 48.9749 37.3474 49.05 37.593C49.1254 37.8385 49.2968 38.043 49.525 38.1604C49.7536 38.2775 50.0199 38.297 50.2629 38.2147C50.5063 38.1325 50.7057 37.9552 50.8164 37.7232C51.6421 36.1218 52.2663 34.4245 52.6752 32.6695L58.1683 31.5749C58.6106 31.4846 58.9283 31.0957 58.9283 30.644V24.944C58.9283 24.4923 58.6106 24.1034 58.1683 24.0131L52.6803 22.9151V22.9147C52.1362 20.5316 51.1921 18.2584 49.888 16.1908L52.9963 11.5274V11.5269C53.2478 11.1503 53.1981 10.6486 52.8775 10.3284L48.8439 6.29858C48.5237 5.97795 48.0219 5.92832 47.6453 6.17982L42.4624 9.635L42.4619 9.63457C42.2473 9.77241 42.0972 9.9904 42.045 10.2398C41.9929 10.4892 42.0429 10.7491 42.1846 10.9612C42.3258 11.1732 42.5463 11.3195 42.7966 11.3675C43.0468 11.4154 43.3059 11.3607 43.5154 11.2156L43.5154 11.2158Z" fill="white"/>
<path d="M55.1282 42.0444H7.62819C5.25233 42.0444 3.05712 43.3121 1.86924 45.3694C0.681363 47.4267 0.681363 49.9621 1.86924 52.0194C3.05712 54.0767 5.25233 55.3444 7.62819 55.3444H44.6782C45.2028 55.3444 45.6282 54.919 45.6282 54.3944C45.6282 53.8698 45.2028 53.4444 44.6782 53.4444H7.62819C5.93133 53.4444 4.36302 52.5389 3.51475 51.0694C2.66611 49.5999 2.66611 47.7889 3.51475 46.3194C4.36296 44.8499 5.93133 43.9444 7.62819 43.9444H55.1282C56.825 43.9444 58.3933 44.8499 59.2416 46.3194C60.0903 47.7889 60.0903 49.5999 59.2416 51.0694C58.3934 52.5389 56.825 53.4444 55.1282 53.4444H48.4782C47.9536 53.4444 47.5282 53.8698 47.5282 54.3944C47.5282 54.919 47.9536 55.3444 48.4782 55.3444H55.1282C57.504 55.3444 59.6992 54.0767 60.8871 52.0194C62.075 49.9621 62.075 47.4267 60.8871 45.3694C59.6992 43.3121 57.504 42.0444 55.1282 42.0444Z" fill="white"/>
<path d="M7.62822 47.7447H11.4282C11.9528 47.7447 12.3782 47.3193 12.3782 46.7947C12.3782 46.2701 11.9528 45.8447 11.4282 45.8447H7.62822C6.60994 45.8447 5.66926 46.388 5.15996 47.2697C4.65103 48.1514 4.65103 49.238 5.15996 50.1197C5.66931 51.0014 6.60993 51.5447 7.62822 51.5447H45.6282C46.6465 51.5447 47.5872 51.0014 48.0965 50.1197C48.6054 49.238 48.6054 48.1514 48.0965 47.2697C47.5871 46.388 46.6465 45.8447 45.6282 45.8447H15.2282C14.7036 45.8447 14.2782 46.2701 14.2782 46.7947C14.2782 47.3193 14.7036 47.7447 15.2282 47.7447H45.6282C46.1528 47.7447 46.5782 48.1701 46.5782 48.6947C46.5782 49.2193 46.1528 49.6447 45.6282 49.6447H7.62822C7.1036 49.6447 6.67822 49.2193 6.67822 48.6947C6.67822 48.1701 7.1036 47.7447 7.62822 47.7447Z" fill="white"/>
</svg>
