<svg width="56" height="51" viewBox="0 0 56 51" fill="none" xmlns="http://www.w3.org/2000/svg">
<path d="M49.6295 6.38095H45.6932V2.54072C45.6932 1.48046 44.8128 0.620605 43.7251 0.620605C42.6374 0.620605 41.757 1.47998 41.757 2.54072V6.38095H29.949V2.54072C29.949 1.48046 29.0686 0.620605 27.9809 0.620605C26.8932 0.620605 26.0128 1.47998 26.0128 2.54072V6.38095H14.2048V2.54072C14.2048 1.48046 13.3244 0.620605 12.2366 0.620605C11.1489 0.620605 10.2685 1.47998 10.2685 2.54072V6.38095H6.33229C3.07654 6.38095 0.428528 8.96438 0.428528 12.1407V44.7807C0.428528 47.9571 3.07654 50.5405 6.33229 50.5405H49.6283C52.884 50.5405 55.5321 47.9571 55.5321 44.7807L55.5325 12.1407C55.5325 8.96438 52.8845 6.38095 49.6288 6.38095H49.6295ZM51.5976 44.781C51.5976 45.8394 50.7154 46.7011 49.6295 46.7011H6.33347C5.24761 46.7011 4.36535 45.8395 4.36535 44.781V21.7409H51.5974L51.5976 44.781ZM51.5976 17.9009H4.36558V12.1412C4.36558 11.0827 5.24781 10.2211 6.3337 10.2211H10.2699V14.0613C10.2699 15.1216 11.1503 15.9814 12.2381 15.9814C13.3257 15.9814 14.2062 15.122 14.2062 14.0613V10.2211H26.0142V14.0613C26.0142 15.1216 26.8946 15.9814 27.9823 15.9814C29.07 15.9814 29.9504 15.122 29.9504 14.0613V10.2211H41.7584V14.0613C41.7584 15.1216 42.6388 15.9814 43.7265 15.9814C44.8142 15.9814 45.6946 15.122 45.6946 14.0613V10.2211H49.6309C50.7167 10.2211 51.599 11.0827 51.599 12.1412L51.5976 17.9009Z" fill="white"/>
<path d="M19.0177 36.7786C18.1126 36.1911 17.8682 34.9982 18.4718 34.1161C19.0712 33.2339 20.2916 32.9929 21.2008 33.5835L25.6326 36.4661L34.3405 26.2724C35.0379 25.459 36.2738 25.3469 37.114 26.0264C37.9477 26.7054 38.0612 27.9157 37.3661 28.7304L27.5261 40.2504C26.88 41.0035 25.7594 41.1638 24.922 40.6192L19.0177 36.7786Z" fill="white"/>
</svg>
