<svg width="56" height="56" viewBox="0 0 56 56" fill="none" xmlns="http://www.w3.org/2000/svg">
<path d="M37.9203 38.3936V48.7061H10.4203V7.45605H27.6078V4.01855H10.4203C9.50867 4.01855 8.63433 4.38072 7.98967 5.02538C7.34501 5.67003 6.98285 6.54437 6.98285 7.45605V48.7061C6.98285 49.6177 7.34501 50.4921 7.98967 51.1367C8.63433 51.7814 9.50867 52.1436 10.4203 52.1436H37.9203C38.832 52.1436 39.7064 51.7814 40.351 51.1367C40.9957 50.4921 41.3578 49.6177 41.3578 48.7061V38.3936H37.9203Z" fill="white"/>
<path d="M50.8797 10.4809L45.2078 4.80906C44.6938 4.30518 44.0027 4.02295 43.2829 4.02295C42.563 4.02295 41.8719 4.30518 41.3578 4.80906L17.2953 28.8716V38.3934H26.8L50.8625 14.3309C51.3664 13.8169 51.6486 13.1258 51.6486 12.4059C51.6486 11.6861 51.3664 10.995 50.8625 10.4809H50.8797ZM25.3735 34.9559H20.7328V30.3153L36.9578 14.0731L41.6157 18.7309L25.3735 34.9559ZM44.0391 16.3075L39.3813 11.6497L43.2829 7.74812L47.9407 12.4059L44.0391 16.3075Z" fill="white"/>
</svg>
