<svg width="56" height="56" viewBox="0 0 56 56" fill="none" xmlns="http://www.w3.org/2000/svg">
<path d="M47.3876 5.7373H9.57513C8.66373 5.73821 7.78992 6.10067 7.14546 6.74513C6.501 7.38959 6.13854 8.2634 6.13763 9.1748V46.9873C6.13868 47.8987 6.50118 48.7724 7.14561 49.4168C7.79004 50.0613 8.66377 50.4238 9.57513 50.4248H47.3876C48.2989 50.4236 49.1726 50.061 49.817 49.4166C50.4613 48.7722 50.8239 47.8986 50.8251 46.9873V9.1748C50.8241 8.26344 50.4616 7.38971 49.8172 6.74528C49.1727 6.10085 48.299 5.73835 47.3876 5.7373ZM47.3876 16.0498H30.2001V9.1748H47.3876V16.0498ZM26.7626 46.9873H19.8876V40.1123H26.7626V46.9873ZM26.7626 36.6748H19.8876V29.7998H26.7626V36.6748ZM16.4501 36.6748H9.57513V29.7998H16.4501V36.6748ZM19.8876 26.3623V19.4873H37.0751V26.3623H19.8876ZM19.8876 16.0498V9.1748H26.7626V16.0498H19.8876ZM40.5126 19.4873H47.3876V26.3623H40.5126V19.4873ZM16.4501 9.1748V26.3623H9.57513V9.1748H16.4501ZM9.57513 40.1123H16.4501V46.9873H9.57513V40.1123ZM30.2001 46.9873V29.7998H47.3894L47.3911 46.9873H30.2001Z" fill="white"/>
</svg>
