<svg width="57" height="57" viewBox="0 0 57 57" fill="none" xmlns="http://www.w3.org/2000/svg">
<path d="M3.74091 9.67383C3.74091 8.28144 4.29403 6.94608 5.2786 5.96152C6.26316 4.97695 7.59852 4.42383 8.99091 4.42383H19.4909C20.8833 4.42383 22.2187 4.97695 23.2032 5.96152C24.1878 6.94608 24.7409 8.28144 24.7409 9.67383V20.1738C24.7409 21.5662 24.1878 22.9016 23.2032 23.8861C22.2187 24.8707 20.8833 25.4238 19.4909 25.4238H8.99091C7.59852 25.4238 6.26316 24.8707 5.2786 23.8861C4.29403 22.9016 3.74091 21.5662 3.74091 20.1738V9.67383ZM8.99091 7.92383C8.52678 7.92383 8.08166 8.1082 7.75347 8.43639C7.42528 8.76458 7.24091 9.2097 7.24091 9.67383V20.1738C7.24091 20.638 7.42528 21.0831 7.75347 21.4113C8.08166 21.7395 8.52678 21.9238 8.99091 21.9238H19.4909C19.955 21.9238 20.4002 21.7395 20.7283 21.4113C21.0565 21.0831 21.2409 20.638 21.2409 20.1738V9.67383C21.2409 9.2097 21.0565 8.76458 20.7283 8.43639C20.4002 8.1082 19.955 7.92383 19.4909 7.92383H8.99091ZM31.7409 9.67383C31.7409 8.28144 32.294 6.94608 33.2786 5.96152C34.2632 4.97695 35.5985 4.42383 36.9909 4.42383H47.4909C48.8833 4.42383 50.2187 4.97695 51.2032 5.96152C52.1878 6.94608 52.7409 8.28144 52.7409 9.67383V20.1738C52.7409 21.5662 52.1878 22.9016 51.2032 23.8861C50.2187 24.8707 48.8833 25.4238 47.4909 25.4238H36.9909C35.5985 25.4238 34.2632 24.8707 33.2786 23.8861C32.294 22.9016 31.7409 21.5662 31.7409 20.1738V9.67383ZM36.9909 7.92383C36.5268 7.92383 36.0817 8.1082 35.7535 8.43639C35.4253 8.76458 35.2409 9.2097 35.2409 9.67383V20.1738C35.2409 20.638 35.4253 21.0831 35.7535 21.4113C36.0817 21.7395 36.5268 21.9238 36.9909 21.9238H47.4909C47.955 21.9238 48.4002 21.7395 48.7283 21.4113C49.0565 21.0831 49.2409 20.638 49.2409 20.1738V9.67383C49.2409 9.2097 49.0565 8.76458 48.7283 8.43639C48.4002 8.1082 47.955 7.92383 47.4909 7.92383H36.9909ZM3.74091 37.6738C3.74091 36.2814 4.29403 34.9461 5.2786 33.9615C6.26316 32.977 7.59852 32.4238 8.99091 32.4238H19.4909C20.8833 32.4238 22.2187 32.977 23.2032 33.9615C24.1878 34.9461 24.7409 36.2814 24.7409 37.6738V48.1738C24.7409 49.5662 24.1878 50.9016 23.2032 51.8861C22.2187 52.8707 20.8833 53.4238 19.4909 53.4238H8.99091C7.59852 53.4238 6.26316 52.8707 5.2786 51.8861C4.29403 50.9016 3.74091 49.5662 3.74091 48.1738V37.6738ZM8.99091 35.9238C8.52678 35.9238 8.08166 36.1082 7.75347 36.4364C7.42528 36.7646 7.24091 37.2097 7.24091 37.6738V48.1738C7.24091 48.638 7.42528 49.0831 7.75347 49.4113C8.08166 49.7395 8.52678 49.9238 8.99091 49.9238H19.4909C19.955 49.9238 20.4002 49.7395 20.7283 49.4113C21.0565 49.0831 21.2409 48.638 21.2409 48.1738V37.6738C21.2409 37.2097 21.0565 36.7646 20.7283 36.4364C20.4002 36.1082 19.955 35.9238 19.4909 35.9238H8.99091ZM31.7409 37.6738C31.7409 36.2814 32.294 34.9461 33.2786 33.9615C34.2632 32.977 35.5985 32.4238 36.9909 32.4238H47.4909C48.8833 32.4238 50.2187 32.977 51.2032 33.9615C52.1878 34.9461 52.7409 36.2814 52.7409 37.6738V48.1738C52.7409 49.5662 52.1878 50.9016 51.2032 51.8861C50.2187 52.8707 48.8833 53.4238 47.4909 53.4238H36.9909C35.5985 53.4238 34.2632 52.8707 33.2786 51.8861C32.294 50.9016 31.7409 49.5662 31.7409 48.1738V37.6738ZM36.9909 35.9238C36.5268 35.9238 36.0817 36.1082 35.7535 36.4364C35.4253 36.7646 35.2409 37.2097 35.2409 37.6738V48.1738C35.2409 48.638 35.4253 49.0831 35.7535 49.4113C36.0817 49.7395 36.5268 49.9238 36.9909 49.9238H47.4909C47.955 49.9238 48.4002 49.7395 48.7283 49.4113C49.0565 49.0831 49.2409 48.638 49.2409 48.1738V37.6738C49.2409 37.2097 49.0565 36.7646 48.7283 36.4364C48.4002 36.1082 47.955 35.9238 47.4909 35.9238H36.9909Z" fill="white"/>
</svg>
