<svg width="58" height="57" viewBox="0 0 58 57" fill="none" xmlns="http://www.w3.org/2000/svg">
<path d="M29.3155 56.9791C29.0551 56.9791 28.8078 56.8651 28.6386 56.6674L1.02918 24.1816C0.882603 24.0081 0.808014 23.7851 0.820444 23.5584C0.832876 23.3316 0.931585 23.1181 1.09617 22.9617C1.26075 22.8053 1.47895 22.7175 1.70607 22.7166H14.6204V11.6106C14.6204 11.3744 14.7143 11.1479 14.8813 10.9809C15.0482 10.8139 15.2748 10.72 15.511 10.72H43.1204C43.3566 10.72 43.5832 10.8139 43.7502 10.9809C43.9172 11.1478 44.011 11.3744 44.011 11.6106V22.7166H56.9253C57.1525 22.7175 57.3707 22.8053 57.5352 22.9617C57.6998 23.1181 57.7985 23.3317 57.811 23.5584C57.8234 23.7851 57.7488 24.0082 57.6022 24.1816L29.9928 56.6674C29.8236 56.8651 29.5763 56.9791 29.316 56.9791H29.3155ZM3.62981 24.4981L29.3155 54.7124L55.0011 24.4981H43.1204C42.8842 24.4981 42.6576 24.4042 42.4906 24.2372C42.3236 24.0702 42.2298 23.8437 42.2298 23.6075V12.5015H16.4016V23.6075C16.4016 23.8437 16.3077 24.0702 16.1407 24.2372C15.9737 24.4042 15.7472 24.4981 15.511 24.4981H3.62981Z" fill="#303030"/>
<path d="M43.1199 7.15917H15.5105C15.1923 7.15917 14.8984 6.9894 14.7392 6.71386C14.5802 6.43832 14.5802 6.09879 14.7392 5.82324C14.8984 5.5477 15.1923 5.37793 15.5105 5.37793H43.1199C43.4381 5.37793 43.732 5.5477 43.8912 5.82324C44.0502 6.09878 44.0502 6.43832 43.8912 6.71386C43.732 6.9894 43.4381 7.15917 43.1199 7.15917Z" fill="#303030"/>
<path d="M43.1199 1.81555H15.5105C15.1923 1.81555 14.8984 1.64578 14.7392 1.37024C14.5802 1.0947 14.5802 0.755162 14.7392 0.479614C14.8984 0.204076 15.1923 0.0343018 15.5105 0.0343018H43.1199C43.4381 0.0343018 43.732 0.204076 43.8912 0.479614C44.0502 0.755152 44.0502 1.09469 43.8912 1.37024C43.732 1.64578 43.4381 1.81555 43.1199 1.81555Z" fill="#303030"/>
</svg>
