<svg width="54" height="61" viewBox="0 0 54 61" fill="none" xmlns="http://www.w3.org/2000/svg">
<path d="M15.7079 30.6876L14.5117 31.9033L23.2791 40.6732L44.2452 19.8297L43.0497 18.5952L23.2779 38.2506L15.7079 30.6876Z" fill="#303030"/>
<path d="M27.8617 0.695358L27.3464 0.305664L26.8311 0.695358C15.3863 9.39983 1.58693 12.5646 1.44893 12.5925L0.777039 12.7407V13.4366C0.777039 27.802 0.777041 57.7121 27.2451 60.8939H27.4473C53.9153 57.711 53.9153 27.8206 53.9153 13.4366V12.7407L53.2434 12.5925C53.1061 12.5646 39.3061 9.39983 27.8613 0.695358H27.8617ZM27.3464 59.1594C2.85632 56.1435 2.50639 29.175 2.50639 14.1149C5.40456 13.3634 17.2267 10.0128 27.3464 2.45922C37.5308 10.0135 49.3065 13.3634 52.1864 14.1149C52.1864 29.1762 51.8366 56.1434 27.3464 59.1693V59.1594Z" fill="#303030"/>
</svg>
