<svg width="68" height="42" viewBox="0 0 68 42" fill="none" xmlns="http://www.w3.org/2000/svg">
<path d="M0.0143019 1.02688L0.0287048 1.67476L3.53162 6.83022C5.46114 9.66677 7.03453 12.0073 7.03453 12.0358C7.03453 12.0574 5.73182 16.9316 4.14406 22.8504C2.54931 28.7762 1.26047 33.6288 1.26746 33.6433C1.27441 33.6579 6.44357 34.4931 12.752 35.501C19.6729 36.6024 24.2436 37.3587 24.2793 37.3874C24.3151 37.4236 24.9274 38.3161 25.6466 39.3888C26.3657 40.447 26.9637 41.3253 26.9707 41.34C26.9776 41.347 36.0911 37.301 47.227 32.3545L67.4771 23.3616L67.5198 23.1456C67.5412 23.0231 67.5769 22.8503 67.5983 22.7423L67.641 22.5625L47.2778 0.386503L23.6381 0.385498H-0.000274658L0.0143019 1.02688ZM41.2035 2.22169L42.5276 3.72637L41.8367 3.75499C41.4523 3.77659 40.9184 3.79819 40.6477 3.80522L40.1491 3.81978L38.832 2.30752L37.5149 0.80285L38.2554 0.781254C38.6612 0.76669 39.1951 0.745094 39.4444 0.738062L39.8929 0.731031L41.2035 2.22169ZM43.7593 2.14987C44.5068 2.98509 45.0124 3.58975 44.9841 3.61135C44.9557 3.63294 44.4571 3.65454 43.8735 3.67613L42.8196 3.70476L41.5949 2.30809C40.9254 1.5447 40.3418 0.875161 40.2992 0.817433C40.2351 0.724018 40.2565 0.724018 41.36 0.724018H42.485L43.7593 2.14987ZM46.4293 2.09965L47.6824 3.47472L47.4544 3.50335C47.3332 3.51792 46.8137 3.54654 46.2937 3.56814L45.361 3.6043L44.4993 2.64655C44.0295 2.12071 43.4454 1.47283 43.2105 1.20667L42.7764 0.716997H45.1757L46.4293 2.09965ZM48.5441 2.04893C49.3487 2.93436 49.7331 3.3808 49.6904 3.40998C49.6546 3.42455 49.2563 3.45318 48.7934 3.46774L47.9605 3.48934L46.928 2.35177C46.3653 1.72549 45.8031 1.09921 45.6893 0.969118L45.4758 0.724536H47.3342L48.5441 2.04893ZM28.9857 2.50294L30.4096 4.22361L29.9397 4.25224C29.6835 4.27383 28.9713 4.30246 28.345 4.32406L27.2201 4.36725L24.3723 0.853647L25.0915 0.832051C25.4828 0.817487 26.202 0.795891 26.6937 0.788859L27.5768 0.781828L28.9857 2.50294ZM32.3818 2.42358L33.763 4.07239L33.3855 4.10855C33.1719 4.12311 32.5099 4.15174 31.8976 4.17333L30.794 4.20196L29.4197 2.53851C28.6648 1.62394 28.0386 0.853576 28.0311 0.824904C28.0241 0.803308 28.5938 0.781712 29.5051 0.781712L30.9931 0.788743L32.3818 2.42358ZM35.5221 2.34423C36.2626 3.20808 36.8537 3.92823 36.8323 3.94289C36.7683 4.00768 34.1907 4.09406 34.1266 4.02927C34.0268 3.93586 31.478 0.904344 31.4422 0.832602C31.4139 0.789409 31.6985 0.774845 32.7952 0.774845H34.1838L35.5221 2.34423ZM38.4767 2.29401L39.8082 3.82028L39.324 3.84891C39.0608 3.8705 38.4911 3.89913 38.0565 3.9137L37.2664 3.94986L36.0416 2.524C35.3652 1.73901 34.7528 1.0264 34.6743 0.939999L34.5392 0.774257H37.1446L38.4767 2.29401ZM17.0531 2.77615C17.879 3.84189 18.5485 4.72735 18.541 4.72735C18.5341 4.73438 17.6227 4.77757 16.5117 4.82077C14.5181 4.90715 14.4899 4.90715 14.397 4.81374C14.2758 4.69119 11.4493 0.932934 11.4493 0.904391C11.4493 0.875764 12.2822 0.854168 14.0482 0.839602L15.5437 0.832571L17.0531 2.77615ZM21.3681 2.68274C22.1657 3.69071 22.8133 4.52594 22.7994 4.54047C22.7781 4.56206 20.0867 4.69164 19.4888 4.69164H19.0686L17.5945 2.78364C16.783 1.73247 16.1135 0.86111 16.1135 0.847096C16.1135 0.832531 16.9678 0.825499 18.0147 0.832531L19.9159 0.847096L21.3681 2.68274ZM25.3269 2.58932C26.1171 3.56114 26.7508 4.36065 26.7439 4.36772C26.737 4.37475 26.1743 4.41091 25.5053 4.43954C24.8288 4.46817 24.067 4.50433 23.8107 4.52593L23.3478 4.54752L21.8669 2.68979L20.3789 0.824992H23.8962L25.3269 2.58932ZM7.2205 3.00668L8.75868 5.11602L8.47409 5.15218C8.3246 5.17378 7.29206 5.224 6.18845 5.26719C4.52961 5.33198 4.17349 5.33901 4.1164 5.28176C4.05929 5.224 1.11914 1.0695 1.03369 0.939899C1.00539 0.889676 1.46777 0.882141 3.3407 0.889676L5.68344 0.90424L7.2205 3.00668ZM12.3683 2.89167C13.2011 4.00763 13.8919 4.9222 13.8851 4.9222C13.8781 4.9222 13.0234 4.96539 11.9701 5.00858C10.9236 5.05177 9.91237 5.09496 9.73412 5.10953L9.41378 5.13112L7.96855 3.15832C7.17838 2.07853 6.4806 1.11378 6.41652 1.02738L6.29533 0.869174H10.8526L12.3683 2.89167ZM51.3083 5.06581C51.9634 5.77145 52.4829 6.36155 52.4759 6.36914C52.4615 6.39074 51.0232 6.52735 50.8454 6.52735C50.767 6.52735 50.4114 6.17478 49.5284 5.19547C48.8663 4.46825 48.3538 3.8636 48.3891 3.85653C48.4675 3.84197 49.9982 3.75558 50.0766 3.77015C50.1049 3.77718 50.6602 4.35324 51.3083 5.06589L51.3083 5.06581ZM49.2363 5.19538C49.9057 5.92964 50.4466 6.54191 50.4396 6.54886C50.4327 6.55589 49.9912 6.60661 49.4642 6.6498C48.9373 6.693 48.4391 6.74322 48.3537 6.75076C48.2112 6.77235 48.1471 6.70756 46.9939 5.42583C46.3319 4.68403 45.7766 4.05075 45.7692 4.02157C45.7622 3.99294 46.1605 3.94975 46.83 3.92062C47.421 3.89199 47.9336 3.86286 47.9549 3.86286C47.9971 3.85633 48.5668 4.45399 49.2363 5.19525L49.2363 5.19538ZM46.6587 5.38975C47.3282 6.13857 47.876 6.76482 47.8621 6.7724C47.8407 6.80103 45.8114 6.9738 45.7548 6.9522C45.6694 6.92357 43.2198 4.1442 43.2487 4.11565C43.2844 4.07949 44.6298 4.00768 45.0858 4.01471L45.4419 4.02174L46.6587 5.38975ZM44.1168 5.51932C44.8002 6.29678 45.3699 6.95225 45.3843 6.97372C45.3913 6.99532 44.9284 7.05307 44.3518 7.09626C43.7752 7.14649 43.2552 7.18265 43.2055 7.18968C43.1201 7.19671 42.7997 6.85118 41.7955 5.71368L40.4928 4.22302L41.5536 4.16527C42.1377 4.13664 42.6642 4.10751 42.7357 4.10751C42.8424 4.10098 43.0704 4.33151 44.1168 5.51922L44.1168 5.51932ZM41.4543 5.72122C42.1521 6.53483 42.7218 7.20429 42.7074 7.21882C42.7005 7.22585 42.1447 7.29063 41.4757 7.34839L40.2723 7.44934L38.9483 5.90854C37.7876 4.56201 37.6456 4.36774 37.7449 4.35308C37.9227 4.33149 39.3899 4.25967 39.8026 4.25213L40.1726 4.2451L41.4543 5.72122ZM38.5916 5.91558C39.866 7.40624 39.8943 7.44185 39.7662 7.47798C39.6877 7.49957 39.0967 7.55733 38.4346 7.61459L37.2456 7.71553L37.1105 7.55733C37.0395 7.47094 36.4271 6.75075 35.7576 5.95867C34.6824 4.69153 34.5542 4.5188 34.661 4.50427C34.8959 4.47564 36.2633 4.41085 36.7683 4.40332L37.2883 4.39629L38.5916 5.91558ZM35.5233 6.14611L36.8617 7.74476L35.6727 7.85274C35.0176 7.9105 34.3625 7.96776 34.22 7.97529L33.9637 7.98985L31.2013 4.66307L31.3652 4.6485C31.7853 4.61234 33.1522 4.55508 33.6438 4.54755L34.1852 4.54052L35.5233 6.14611ZM32.1624 6.34047C32.9098 7.24047 33.5083 8.00393 33.4864 8.01794C33.4651 8.03954 32.8527 8.10432 32.1266 8.16208C31.4005 8.21984 30.7241 8.28463 30.6243 8.29869L30.4465 8.32028L29.044 6.59961C28.2752 5.64939 27.6554 4.86441 27.6697 4.84988C27.698 4.82125 29.5992 4.71328 30.3611 4.70574L30.8026 4.69871L32.1624 6.34047ZM28.581 6.59208C29.9126 8.24088 29.9835 8.33435 29.8554 8.35595C29.7769 8.36299 29.0225 8.42777 28.1752 8.50713C26.7652 8.62967 26.6231 8.6367 26.5447 8.56489C26.502 8.52169 25.8469 7.70104 25.0851 6.75036L23.7108 5.01567L23.9457 5.00111C24.4444 4.97248 26.7439 4.85696 26.9505 4.84993L27.171 4.8429L28.581 6.59208ZM24.6435 6.80804C25.4123 7.77986 26.046 8.60097 26.0535 8.62964C26.0605 8.67284 25.5907 8.73059 24.4086 8.83104C23.4972 8.91039 22.6713 8.97518 22.5715 8.98221C22.3937 8.98924 22.3937 8.98924 20.934 7.11034C20.1364 6.08077 19.4888 5.22394 19.4958 5.21687C19.5171 5.19527 22.3724 5.05866 22.8705 5.05113L23.2405 5.0441L24.6435 6.80804ZM20.4359 7.14655C21.2404 8.18315 21.8811 9.03295 21.8597 9.04002C21.7385 9.08321 17.8513 9.39259 17.8224 9.36395C17.6089 9.13343 14.8893 5.46863 14.9106 5.44702C14.9464 5.41086 18.1647 5.24563 18.6345 5.2597L18.9762 5.26673L20.4359 7.14655ZM15.7862 7.44186C16.6052 8.53622 17.2742 9.42919 17.2672 9.43626C17.2603 9.44329 13.4295 9.7818 13.0377 9.81043L12.8385 9.825L9.79103 5.66352L11.941 5.56257C13.1156 5.50482 14.1337 5.46163 14.1908 5.46163C14.2698 5.46213 14.6398 5.91564 15.7861 7.44188L15.7862 7.44186ZM10.7099 7.79443C11.5428 8.93901 12.1979 9.88217 12.1695 9.88976C12.0841 9.91136 7.65546 10.293 7.64109 10.2785C7.63414 10.2715 6.94329 9.28506 6.08906 8.08981L4.55089 5.90808L4.84987 5.89352C5.01377 5.88649 5.96784 5.83576 6.96464 5.79257C7.96837 5.73481 8.8728 5.70618 8.98647 5.70618L9.18562 5.71321L10.7099 7.79443ZM54.0771 8.07568L55.3157 9.42915L54.7103 9.51554C54.3686 9.55873 53.9768 9.60895 53.8273 9.62352L53.5566 9.64511L52.3607 8.32018C51.6986 7.58593 51.1573 6.96671 51.1434 6.94511C51.1364 6.91648 51.4354 6.86576 51.9266 6.81554C52.3681 6.77235 52.7525 6.73619 52.7809 6.72915C52.8097 6.72915 53.3937 7.33384 54.0771 8.07568H54.0771ZM52.0621 8.30571C52.7386 9.0475 53.2869 9.66677 53.2725 9.68078C53.2581 9.68781 52.7669 9.76716 52.1759 9.84652C51.3003 9.96907 51.0937 9.98313 51.0509 9.93291C51.0152 9.89675 50.4386 9.2559 49.7621 8.50705C48.7509 7.38405 48.5587 7.13892 48.6441 7.13198C48.9714 7.08879 50.6307 6.93058 50.7232 6.94465C50.7947 6.95218 51.2148 7.37707 52.0621 8.30571L52.0621 8.30571ZM49.5347 8.60806C50.2255 9.37848 50.7808 10.0194 50.7733 10.0339C50.752 10.0555 49.2854 10.2644 48.8508 10.3147C48.7082 10.3292 48.6159 10.2353 47.4055 8.87479C46.7008 8.06821 46.1312 7.40573 46.1455 7.39172C46.1883 7.34853 47.8545 7.19032 48.0964 7.19736C48.2673 7.19736 48.3383 7.26918 49.5347 8.60817V8.60806ZM47.1278 8.92496C47.8187 9.71699 48.3809 10.3648 48.3665 10.3648C48.3521 10.3794 46.4515 10.6385 46.2304 10.6601C46.1449 10.6672 45.8529 10.3648 44.8065 9.15548C44.0804 8.32026 43.4963 7.63628 43.5038 7.61468C43.5182 7.60764 44.0307 7.54286 44.6431 7.49213C45.4333 7.42031 45.768 7.40575 45.8107 7.43437C45.8395 7.47053 46.4375 8.14051 47.1278 8.92503L47.1278 8.92496ZM43.917 8.54326C44.3654 9.06155 44.9634 9.74561 45.2629 10.0841C45.5549 10.415 45.7899 10.6963 45.7754 10.7103C45.7397 10.739 43.4829 11.0413 43.4045 11.0197C43.3047 10.9981 40.6347 7.88784 40.6918 7.85865C40.7131 7.85162 41.2614 7.78683 41.8951 7.72908C42.5289 7.67132 43.0628 7.61407 43.0772 7.60653C43.098 7.6216 43.4755 8.03243 43.917 8.5432L43.917 8.54326ZM41.6527 9.49398C42.3862 10.3438 42.9843 11.0635 42.9843 11.078C42.9843 11.0996 42.4076 11.2005 41.7029 11.2939L40.4141 11.4667L39.0329 9.83244C38.271 8.93244 37.6586 8.18364 37.6731 8.16898C37.7158 8.12579 39.7879 7.93142 40.0799 7.93846L40.3218 7.94549L41.6527 9.49398ZM38.6409 9.85408C39.4097 10.7687 40.0366 11.5175 40.0296 11.5175C40.0226 11.5246 39.3889 11.611 38.6126 11.7189L37.2026 11.9063L37.1027 11.7837C37.0456 11.7119 36.4119 10.9485 35.6857 10.0701C34.9596 9.19875 34.3755 8.47146 34.383 8.45745C34.4044 8.43585 37.1315 8.16213 37.2025 8.1767C37.2239 8.18373 37.872 8.93959 38.6408 9.85417L38.6409 9.85408ZM35.3868 10.2353C36.177 11.1855 36.7894 11.9634 36.7466 11.9705C36.1839 12.0714 33.7349 12.3738 33.7136 12.3446C33.6923 12.323 33.0302 11.5094 32.247 10.5446C31.1077 9.14797 30.837 8.78077 30.9155 8.76624C31.1787 8.72305 33.436 8.52166 33.6779 8.51412L33.9555 8.50709L35.3868 10.2353ZM31.7985 10.5667C32.5817 11.5315 33.2299 12.3522 33.2367 12.3813C33.2437 12.4245 32.7669 12.5108 31.7344 12.655C30.9015 12.7775 30.1535 12.8709 30.0894 12.8709C29.9827 12.878 29.7547 12.6118 28.4803 11.0132C27.6688 9.98364 27.0062 9.14135 27.0137 9.13389C27.0281 9.12686 29.9828 8.83857 30.2678 8.81699C30.3458 8.80996 30.6949 9.20571 31.7985 10.5667V10.5667ZM27.9967 11.0489C28.8226 12.093 29.4846 12.9569 29.4633 12.9569C29.4419 12.9639 28.6731 13.0719 27.7543 13.1944C26.836 13.317 26.0384 13.432 25.9813 13.439C25.8889 13.4606 25.661 13.1869 24.3438 11.4949C22.9696 9.7165 22.827 9.5221 22.9338 9.5005C22.9979 9.49347 23.8094 9.41411 24.7422 9.3207C25.6749 9.23432 26.4511 9.15496 26.4651 9.15496C26.487 9.16249 27.1778 10.0123 27.9968 11.0488L27.9967 11.0489ZM23.8243 11.5386C25.1057 13.1944 25.3267 13.5043 25.2482 13.533C25.1772 13.5546 21.5243 14.0658 21.3962 14.0658C21.3535 14.0658 18.3135 10.0409 18.3135 9.9761C18.3135 9.9329 21.9589 9.55121 22.2152 9.57281C22.2793 9.58034 22.8062 10.2212 23.8243 11.5385V11.5386ZM56.8891 11.1428C57.5655 11.8846 58.1208 12.5039 58.1278 12.5179C58.1347 12.5395 57.7717 12.6188 57.3162 12.7122C56.533 12.8634 56.4903 12.8634 56.4118 12.7841C55.8064 12.1286 53.9623 10.0841 53.9623 10.0554C53.9623 10.0192 55.2511 9.81782 55.5287 9.8108C55.636 9.80327 55.8922 10.0484 56.889 11.1427L56.8891 11.1428ZM19.2675 12.086C20.1218 13.2165 20.7912 14.1521 20.7555 14.1597C20.7197 14.1668 19.7304 14.3039 18.5553 14.4621C16.59 14.7358 16.4192 14.7499 16.3696 14.678C16.3338 14.6278 15.6221 13.6555 14.7887 12.511C13.9558 11.3734 13.2794 10.4232 13.2864 10.4156C13.3147 10.3795 17.2521 10.0199 17.487 10.0269L17.715 10.0339L19.2675 12.086ZM54.9667 11.5099C55.9779 12.6259 56.2054 12.9066 56.1413 12.9358C56.0986 12.9574 55.6213 13.0508 55.0874 13.1517L54.112 13.3315L53.9481 13.1658C53.5279 12.7409 51.4847 10.4155 51.4985 10.401C51.5412 10.3578 53.3069 10.1057 53.5065 10.1132C53.6992 10.1202 53.735 10.1489 54.9666 11.5099L54.9667 11.5099ZM14.2403 12.6405C15.1159 13.8428 15.8212 14.8291 15.8067 14.8291C15.7998 14.8362 14.7886 14.9803 13.5638 15.146C11.8195 15.3836 11.3209 15.4413 11.2713 15.3906C11.2003 15.3188 8.0674 10.8906 8.08126 10.8906C8.09566 10.8836 12.4388 10.4657 12.5526 10.4587C12.6311 10.4512 13.0443 10.9916 14.2402 12.6404L14.2403 12.6405ZM52.4747 11.8841C53.1725 12.6761 53.7561 13.3385 53.7561 13.3601C53.763 13.3817 53.322 13.4967 52.7593 13.5977L51.7481 13.792L51.6269 13.6479C51.5559 13.5685 50.9718 12.8991 50.3098 12.1648C49.6548 11.423 49.1139 10.7967 49.1065 10.7681C49.0851 10.7249 50.7012 10.4588 51.0504 10.4588C51.1859 10.4512 51.3354 10.6029 52.4747 11.8841L52.4747 11.8841ZM50.132 12.3306L51.4704 13.8428L50.5521 14.0226C50.0396 14.1236 49.5409 14.21 49.4341 14.224L49.235 14.2527L47.8752 12.6832C47.1277 11.8193 46.5367 11.1061 46.5725 11.0921C46.715 11.0489 48.4736 10.7968 48.6301 10.8043C48.7866 10.8189 48.8859 10.9193 50.132 12.3306L50.132 12.3306ZM47.5548 12.7268C48.3022 13.5837 48.9146 14.2963 48.9146 14.3108C48.9146 14.3395 46.7289 14.7644 46.6076 14.7573C46.5291 14.7503 43.7453 11.5315 43.7881 11.4959C43.8094 11.4672 46.0165 11.1433 46.1163 11.1574C46.166 11.1569 46.8141 11.87 47.5545 12.7268L47.5548 12.7268ZM44.8277 13.1944C45.5965 14.0944 46.2164 14.8363 46.2089 14.8432C46.2019 14.8503 45.6322 14.9728 44.9488 15.1094C44.0017 15.2892 43.6888 15.3324 43.6461 15.2892C43.4966 15.138 40.8336 11.9553 40.8336 11.9337C40.8336 11.9051 43.2116 11.545 43.3472 11.5596C43.3894 11.553 44.0589 12.2943 44.8278 13.1944L44.8277 13.1944ZM41.8657 13.67C42.6345 14.5846 43.2757 15.355 43.2757 15.3836C43.2826 15.4268 40.8689 15.9165 40.62 15.9235C40.5346 15.9306 37.6153 12.4386 37.6655 12.3954C37.7082 12.3452 40.0862 11.9996 40.2928 12.0067C40.4487 12.0067 40.5416 12.1076 41.8657 13.6701V13.67ZM38.6831 14.217C39.4877 15.1818 40.1427 15.9954 40.1427 16.0099C40.1427 16.0244 39.5304 16.154 38.7829 16.2977C38.0355 16.4418 37.3659 16.5714 37.295 16.5855C37.1813 16.6071 37.0318 16.4343 35.6859 14.7784C34.8743 13.7774 34.1979 12.9281 34.1979 12.9065C34.1979 12.8563 36.925 12.4384 37.1242 12.453C37.1878 12.446 37.7361 13.0723 38.6833 14.2169L38.6831 14.217ZM35.2299 14.793C36.0703 15.8226 36.7468 16.6724 36.7393 16.6794C36.7249 16.701 33.6208 17.2916 33.5422 17.2841C33.4782 17.2841 32.9229 16.6146 31.9118 15.34L30.3736 13.3959L31.9545 13.1653C32.8301 13.0357 33.585 12.9348 33.6277 12.9278C33.6778 12.9283 34.2689 13.6123 35.2299 14.7931V14.793ZM59.8003 14.3249C60.505 15.0954 61.0816 15.7363 61.0816 15.7508C61.0816 15.7794 59.6364 16.1541 59.5296 16.1466C59.4725 16.1466 56.8382 13.2738 56.8666 13.2522C56.888 13.2376 58.3546 12.9428 58.4614 12.9282C58.4976 12.9282 59.0956 13.5545 59.8003 14.3249V14.3249ZM57.921 14.7644C58.6401 15.5564 59.2237 16.2188 59.2023 16.2259C59.1596 16.2761 57.2873 16.7442 57.2019 16.7301C57.0807 16.7085 54.4394 13.7424 54.5175 13.7277C54.8736 13.6413 56.4187 13.332 56.4966 13.3244C56.5825 13.3244 56.9456 13.6916 57.921 14.7643V14.7644ZM31.4486 15.4053C32.2889 16.4635 32.9793 17.3565 32.9793 17.3781C32.9793 17.3997 32.2457 17.5579 31.3488 17.7236C30.4518 17.8964 29.6542 18.0475 29.5901 18.0691C29.469 18.0907 29.3622 17.9682 28.0237 16.2405C27.2336 15.2255 26.5214 14.3039 26.4428 14.2099C26.3574 14.109 26.3078 14.0085 26.3147 14.001C26.3361 13.9794 29.6184 13.4968 29.8176 13.4827C29.8966 13.4681 30.2884 13.9362 31.4486 15.4052L31.4486 15.4053ZM55.5358 15.3113C56.2693 16.132 56.8529 16.816 56.8385 16.8452C56.8171 16.8668 56.3756 16.9818 55.87 17.1114C54.98 17.3344 54.9443 17.3419 54.8519 17.2555C54.7168 17.133 52.1963 14.2678 52.1749 14.2246C52.168 14.1814 53.8124 13.8359 54.0617 13.8213C54.1903 13.8213 54.3185 13.9433 55.5358 15.3114V15.3113ZM27.3686 16.1179C28.6286 17.7522 28.935 18.1625 28.864 18.1987C28.8213 18.2203 27.9527 18.3931 26.9276 18.5874C25.1263 18.933 25.0692 18.933 24.9838 18.8466C24.9341 18.7964 24.1936 17.8316 23.3388 16.701C22.1354 15.1023 21.8081 14.6349 21.8792 14.6202C22.057 14.577 25.553 14.0803 25.6672 14.0803C25.7739 14.0728 26.0228 14.3681 27.3687 16.1179L27.3686 16.1179ZM53.2282 15.8296C53.99 16.6935 54.6024 17.4067 54.5954 17.4136C54.5885 17.4207 54.1112 17.5502 53.5346 17.7014L52.4951 17.9751L51.0851 16.3549C50.3088 15.4694 49.6751 14.7277 49.6612 14.7061C49.6543 14.6775 51.5267 14.2812 51.7616 14.2596C51.8113 14.2676 52.4525 14.9512 53.2282 15.8296L53.2282 15.8296ZM13.2138 21.0715C15.6206 24.6067 17.5853 27.5227 17.5853 27.5443C17.5853 27.5945 4.69176 30.6476 4.65489 30.6114C4.63353 30.5968 5.55929 26.9752 6.70558 22.5691C7.84489 18.1626 8.79898 14.5771 8.81284 14.5987C8.82724 14.6203 10.8064 17.5292 13.2131 21.0715H13.2138ZM22.8756 16.8739C23.7726 18.0617 24.4992 19.041 24.4917 19.048C24.4848 19.0551 23.5232 19.2424 22.3487 19.4729C20.5831 19.8114 20.2126 19.8687 20.156 19.8185C20.1133 19.7823 19.3584 18.7603 18.4758 17.5503L16.8597 15.3401L18.9456 15.0377C20.0988 14.872 21.0817 14.7283 21.1458 14.7283C21.2238 14.7138 21.5938 15.1748 22.8756 16.8739V16.8739ZM50.7504 16.3988C51.5192 17.2842 52.1529 18.019 52.1529 18.0331C52.1529 18.0617 50.0739 18.5946 49.9388 18.6021C49.8892 18.6091 49.2694 17.9181 48.4082 16.9172L46.9629 15.2322L48.0735 15.0017C48.6858 14.8792 49.2197 14.7712 49.2694 14.7787C49.3195 14.7787 49.9816 15.5059 50.7503 16.399L50.7504 16.3988ZM48.1018 17.018C48.8994 17.9467 49.54 18.71 49.5256 18.7171C49.5112 18.7241 48.956 18.8753 48.287 19.041L47.0622 19.3504L45.5743 17.5865C44.7628 16.6218 44.1002 15.8227 44.1147 15.8081C44.1574 15.7649 46.4072 15.3039 46.5354 15.3114C46.6282 15.326 47.0837 15.8297 48.1018 17.018V17.018ZM17.9206 17.6945C18.8389 18.9617 19.5656 19.9988 19.5297 20.0059C19.5014 20.0129 18.4972 20.2073 17.3156 20.4308C15.3077 20.8195 15.1513 20.8411 15.0727 20.7693C15.03 20.719 14.2612 19.6463 13.3638 18.3786C12.0611 16.5354 11.7547 16.0673 11.8256 16.0527C11.8753 16.0457 12.8721 15.8945 14.0472 15.7288C15.2218 15.556 16.1972 15.4194 16.2115 15.4119C16.2329 15.4054 17.0022 16.435 17.9205 17.6946L17.9206 17.6945ZM45.2398 17.6729C46.0513 18.6377 46.7139 19.4368 46.6994 19.4443C46.678 19.4659 44.1292 20.1137 44.0721 20.1137C44.015 20.1137 40.9462 16.4489 40.9819 16.4273C41.0246 16.3842 43.5169 15.909 43.6305 15.9161C43.7373 15.9236 44.0293 16.2405 45.2396 17.6729L45.2398 17.6729ZM62.6978 17.4715C63.3598 18.1988 63.9508 18.8466 64.0148 18.926L64.1286 19.0701L63.3597 19.3292C62.6123 19.5814 62.5909 19.5884 62.5124 19.495C62.4628 19.4372 61.9214 18.8396 61.3091 18.1631C60.6897 17.4791 60.1131 16.8458 60.0277 16.7448L59.8638 16.565L60.6113 16.3637C61.024 16.2486 61.3945 16.1623 61.4372 16.1623C61.4804 16.1613 62.0357 16.7514 62.6977 17.4716L62.6978 17.4715ZM42.0993 18.3429C42.9397 19.3579 43.623 20.2006 43.623 20.2148C43.623 20.258 40.7966 20.9782 40.7394 20.9566C40.6754 20.935 37.5851 17.1261 37.6135 17.1045C37.6279 17.0974 40.3759 16.5284 40.5398 16.5068C40.5542 16.4998 41.252 17.3274 42.0993 18.3429V18.3429ZM60.9953 18.1556L62.3482 19.6462L61.3371 19.9848C60.7743 20.1645 60.312 20.3017 60.2976 20.2801C60.2832 20.2585 59.6569 19.5599 58.9164 18.7322C58.1759 17.9115 57.5635 17.2199 57.5566 17.1983C57.5422 17.1622 59.4434 16.6509 59.5571 16.6655C59.6067 16.665 60.2549 17.342 60.9953 18.1556L60.9953 18.1556ZM38.7593 19.149L40.3257 21.0856L38.7523 21.4888C37.8906 21.7118 37.1646 21.8921 37.1501 21.8846C37.0929 21.87 33.9248 17.8597 33.9462 17.8381C33.9819 17.8019 37.0219 17.1902 37.1148 17.2043C37.1501 17.2123 37.8906 18.0837 38.7593 19.1489V19.149ZM58.6597 18.7964C59.4072 19.6317 60.034 20.3443 60.0409 20.3659C60.0553 20.3945 58.2822 21.0068 58.1754 21.0068C58.1397 21.0068 55.2849 17.7809 55.3063 17.7669C55.3346 17.7453 57.2358 17.2486 57.264 17.2556C57.278 17.2626 57.9047 17.9542 58.6597 18.7964V18.7964ZM56.4168 19.4443C57.2 20.3298 57.8406 21.0715 57.8406 21.0931C57.8406 21.1147 57.3847 21.2805 56.8295 21.4603L55.8257 21.7912L54.3516 20.1063C53.5401 19.1777 52.885 18.4143 52.892 18.4072C52.899 18.4002 53.3763 18.2706 53.9385 18.1194C54.5082 17.9683 54.971 17.8387 54.978 17.8387C54.9929 17.8387 55.6336 18.5589 56.4167 19.4443L56.4168 19.4443ZM35.0568 19.9556C35.9324 21.0645 36.659 21.9861 36.659 22.0001C36.659 22.0147 35.8828 22.2231 34.9361 22.4612C33.4909 22.8354 33.2058 22.8931 33.1491 22.8354C33.014 22.6988 29.895 18.6523 29.9095 18.6378C29.9309 18.6162 33.2629 17.9467 33.3771 17.9392C33.4263 17.9326 34.0739 18.7101 35.0568 19.9557V19.9556ZM54.0595 20.1932L55.5336 21.8781L54.4728 22.2382C53.8818 22.4326 53.3836 22.5983 53.3479 22.5983C53.2907 22.6053 50.279 19.1348 50.3079 19.0992C50.3362 19.0776 52.5219 18.4945 52.5577 18.5016C52.5785 18.5011 53.255 19.2645 54.0595 20.1931L54.0595 20.1932ZM31.0327 20.8626C31.9441 22.0364 32.6777 23.0082 32.6632 23.0228C32.6274 23.0589 29.0034 23.9805 28.9109 23.9805C28.8613 23.9735 28.1774 23.1092 27.1523 21.7486C25.65 19.7542 25.4861 19.5168 25.5859 19.4952C25.6927 19.4666 29.2954 18.7393 29.3525 18.7318C29.3664 18.7318 30.1283 19.6895 31.0327 20.8627V20.8626ZM51.4811 20.949L52.9904 22.7129L51.8228 23.1016C51.1821 23.3176 50.6338 23.4833 50.598 23.4758C50.527 23.4688 47.4796 19.8687 47.5153 19.8326C47.5367 19.811 49.8506 19.1847 49.9221 19.1847C49.9504 19.1852 50.6552 19.9772 51.4812 20.9491L51.4811 20.949ZM65.7923 20.8556C66.4757 21.5974 67.0453 22.2237 67.0453 22.2453C67.0523 22.2599 66.725 22.4111 66.3192 22.5693L65.5857 22.8646L65.4004 22.6632C65.3006 22.5622 64.7026 21.9073 64.0834 21.2233L62.9515 19.9707L63.6707 19.7262C64.0695 19.5896 64.4256 19.4816 64.4683 19.4886C64.511 19.4946 65.1089 20.1069 65.7923 20.8557L65.7923 20.8556ZM26.6399 21.8781C27.5582 23.1091 28.3201 24.1171 28.3201 24.1316C28.3201 24.1461 27.366 24.3978 26.2053 24.7007C24.169 25.2189 24.0981 25.2335 24.0265 25.1471C23.9907 25.0969 23.215 24.0241 22.2892 22.7711C21.3709 21.5186 20.6517 20.4814 20.6801 20.4745C20.9721 20.4026 24.8242 19.6322 24.8808 19.6393C24.924 19.6388 25.7072 20.6543 26.6399 21.8782V21.8781ZM48.6979 21.7772L50.243 23.6133L47.6376 24.4772L47.5238 24.3406C44.8538 21.1223 44.455 20.6326 44.5191 20.618C44.7043 20.5462 47.0465 19.927 47.0966 19.941C47.1239 19.941 47.8431 20.7692 48.6979 21.7772L48.6979 21.7772ZM64.0415 21.518L65.3586 22.9579L64.3901 23.3466C63.4574 23.7208 63.4217 23.7354 63.3437 23.649C62.8594 23.1377 60.7448 20.7401 60.7591 20.726C60.7874 20.6974 62.6176 20.0706 62.6886 20.0636C62.71 20.0636 63.3224 20.719 64.0416 21.518L64.0415 21.518ZM21.7843 23.0011C22.8169 24.4124 23.4933 25.3842 23.4505 25.3987C23.1302 25.5137 19.1217 26.5077 19.093 26.4715C18.9862 26.3565 15.6184 21.5542 15.6184 21.518C15.6184 21.4748 19.7411 20.6251 19.9616 20.618C20.0326 20.618 20.4881 21.2157 21.7843 23.0011V23.0011ZM45.6427 22.627C46.5183 23.6781 47.2304 24.5566 47.2374 24.5711C47.2444 24.5927 46.6395 24.8016 45.8915 25.0462C45.144 25.2908 44.5104 25.4997 44.4815 25.5072C44.4388 25.5218 41.2274 21.6335 41.1922 21.5186C41.1852 21.497 41.8259 21.3172 42.6161 21.1012C43.3993 20.8923 44.0543 20.727 44.0613 20.7195C44.0692 20.7115 44.767 21.5758 45.6427 22.627V22.627ZM61.8127 22.3246C62.5463 23.1382 63.1443 23.8153 63.1443 23.8369C63.1443 23.8946 61.3216 24.5927 61.2788 24.5495C60.8448 24.0744 58.5805 21.4825 58.5805 21.4678C58.5805 21.4316 60.3962 20.8199 60.4529 20.834C60.4668 20.834 61.0792 21.5035 61.8127 22.3246V22.3246ZM59.6409 23.0945C60.3883 23.9443 61.0082 24.65 61.022 24.6716C61.029 24.7077 59.1849 25.4706 59.0925 25.4706C59.0354 25.4706 56.202 22.2524 56.2372 22.2308C56.2656 22.2021 58.1668 21.5683 58.2239 21.5613C58.2527 21.5543 58.8933 22.2524 59.6409 23.0946V23.0945ZM42.3888 23.6349C43.2788 24.7363 44.005 25.6439 43.998 25.6509C43.9697 25.6796 40.9153 26.6735 40.9009 26.6519C40.8939 26.6449 40.1534 25.7157 39.2559 24.5857C38.359 23.4552 37.6109 22.5049 37.6041 22.4764C37.5827 22.4262 40.5731 21.598 40.7081 21.6196C40.7439 21.6261 41.4988 22.5331 42.3888 23.6351V23.6349ZM57.3548 23.9659C58.1236 24.8513 58.7505 25.5931 58.7435 25.6078C58.7365 25.6509 56.7142 26.4646 56.6431 26.4575C56.6004 26.4575 53.7665 23.1815 53.7381 23.1021C53.7312 23.0589 55.76 22.3603 55.8881 22.3603C55.9164 22.3533 56.579 23.0805 57.3547 23.9659L57.3548 23.9659ZM38.7856 24.657C39.7039 25.8091 40.4518 26.781 40.4445 26.7955C40.4375 26.8317 37.2049 27.8969 37.1124 27.9044C37.0628 27.9044 33.7233 23.642 33.6806 23.5195C33.6662 23.4833 34.3143 23.289 35.3608 23.0082C36.3004 22.7636 37.0767 22.5547 37.0911 22.5547C37.1124 22.5547 37.8743 23.4979 38.7856 24.6571V24.657ZM54.8488 24.8805C55.6465 25.8166 56.2941 26.587 56.2871 26.6011C56.2657 26.6589 53.9946 27.5514 53.9657 27.5157C53.3816 26.8603 51.025 24.0166 51.0539 23.995C51.0896 23.9589 53.2755 23.203 53.3609 23.196C53.3823 23.1955 54.0587 23.9513 54.8488 24.8805V24.8805ZM34.8849 25.8382C35.832 27.0622 36.6008 28.0701 36.5938 28.0772C36.5869 28.0842 35.7535 28.3579 34.7427 28.6894C33.6461 29.0495 32.8773 29.2725 32.8416 29.2509C32.7705 29.2077 29.3456 24.6645 29.3456 24.6213C29.3456 24.5926 33.0695 23.5917 33.1261 23.6063C33.1475 23.6058 33.9376 24.6137 34.8848 25.8381L34.8849 25.8382ZM52.1076 25.8307C52.8909 26.7668 53.5672 27.5659 53.61 27.6091C53.674 27.6809 53.5603 27.7387 52.4354 28.1922C51.752 28.4659 51.1823 28.6964 51.161 28.6964C51.1183 28.6964 48.1349 25.1035 48.121 25.0246C48.1066 24.9668 50.3997 24.1462 50.5919 24.1391C50.6406 24.1316 51.2316 24.794 52.1077 25.8306L52.1076 25.8307ZM30.5836 27.134C31.5447 28.4157 32.3279 29.4669 32.3209 29.4739C32.314 29.4809 31.3813 29.7908 30.2564 30.165C28.5762 30.7124 28.1987 30.8274 28.1491 30.7696C27.9425 30.5391 24.5961 25.9026 24.6175 25.8739C24.6671 25.8161 28.5832 24.7866 28.7113 24.7941C28.8107 24.8011 29.1524 25.2331 30.5838 27.134L30.5836 27.134ZM49.252 26.9828C50.0924 27.9908 50.7543 28.8331 50.74 28.8547C50.7186 28.8693 50.1132 29.1284 49.387 29.4237C48.497 29.7838 48.0486 29.942 48.0059 29.9134C47.9205 29.8557 44.8943 26.1261 44.8943 26.0829C44.8943 26.0327 47.55 25.1327 47.6428 25.1467C47.6924 25.1467 48.4116 25.9749 49.2519 26.9829L49.252 26.9828ZM25.7993 28.5167C26.7816 29.8778 27.5723 31.0078 27.5579 31.0294C27.5008 31.0871 23.3711 32.426 23.3215 32.4044C23.2217 32.3683 19.5976 27.1842 19.6547 27.1626C19.8469 27.0908 23.8911 26.025 23.9408 26.0321C23.9696 26.0396 24.8094 27.1556 25.7993 28.5166V28.5167ZM46.0696 28.1782C47.572 30.0359 47.636 30.1147 47.5292 30.1655C47.4721 30.1942 46.8031 30.4749 46.0483 30.7777C45.1796 31.1303 44.6526 31.3176 44.6169 31.296C44.5742 31.2599 42.1962 28.2936 41.4055 27.2711C41.3698 27.2279 41.7472 27.0838 42.8508 26.7166C43.6697 26.4505 44.3744 26.227 44.4242 26.227C44.4674 26.234 45.1796 27.0762 46.0695 28.1782L46.0696 28.1782ZM42.6303 29.5171C43.4989 30.6045 44.1898 31.5115 44.1685 31.5331C44.1258 31.5693 40.9075 32.8721 40.9005 32.8505C40.8861 32.8359 37.6396 28.6382 37.5823 28.5665C37.554 28.5233 38.0095 28.3505 39.2198 27.9402C40.7793 27.4144 40.9074 27.3787 40.9854 27.4505C41.0287 27.4942 41.7692 28.4228 42.6304 29.5172L42.6303 29.5171ZM38.7499 30.8421C39.6613 32.0228 40.4161 33.0022 40.4231 33.0162C40.4444 33.074 36.806 34.5209 36.7563 34.4706C36.6351 34.341 33.3672 29.9851 33.3672 29.949C33.3672 29.9058 36.8701 28.7105 37.0056 28.7035C37.0627 28.6964 37.6821 29.4598 38.7499 30.842V30.8421ZM20.8291 32.2895C21.7549 33.6506 22.5167 34.7735 22.5093 34.7735C22.5023 34.7806 19.2697 34.2477 15.3182 33.5998C11.3669 32.9519 8.09143 32.412 8.03435 32.4045C7.98468 32.3975 10.4412 31.7923 13.5025 31.0726C16.5638 30.3524 19.0843 29.7693 19.1057 29.7839C19.1275 29.8055 19.9038 30.9285 20.8291 32.2896V32.2895ZM34.5644 32.4261C35.4971 33.6717 36.2589 34.6943 36.2589 34.7159C36.2589 34.7591 32.2932 36.3501 32.236 36.3285C32.2146 36.3215 31.3956 35.2342 30.4276 33.9093L28.669 31.5047L30.7335 30.8061C31.8729 30.4173 32.8194 30.115 32.8339 30.1366C32.8483 30.1436 33.6316 31.1732 34.5642 32.4263L34.5644 32.4261ZM29.865 34.1036C30.8335 35.4209 31.6237 36.5299 31.638 36.5591C31.645 36.5807 30.7197 36.984 29.5735 37.4445C27.5158 38.2797 27.4876 38.2867 27.3946 38.1863C27.2307 38.0205 23.8063 33.1388 23.8276 33.1172C23.849 33.0956 28.0924 31.6774 28.1068 31.6914C28.1063 31.6919 28.9039 32.7787 29.8649 34.1036L29.865 34.1036Z" fill="#303030"/>
</svg>
