<svg width="67" height="59" viewBox="0 0 67 59" fill="none" xmlns="http://www.w3.org/2000/svg">
<path d="M64.4196 26.1848L59.5838 20.4475L57.9448 16.9232L53.8465 14.4648L52.3713 7.33384L50.1583 6.59631L47.6999 0.0395508H47.0443L45.979 5.03932V8.89136L45.0775 11.4317L43.5206 12.415L42.0454 11.2673L36.3901 7.66114L38.4393 4.30025L38.112 2.33297L32.0474 1.02136L31.3918 2.66036L29.0973 2.74231L27.212 5.93829V7.33191H24.8356L22.9503 5.61103L18.77 7.66019L17.131 11.8405L16.3935 10.3654L14.5906 12.0044V13.398L12.9516 15.7744L9.83708 16.9222L5.57487 17.4958C5.57487 17.4958 1.64095 21.4298 1.55894 21.6762C1.47699 21.922 0.493622 25.2004 0.493622 25.2004L1.80523 26.7574L1.55938 29.052L4.42798 36.5922L4.18214 40.1164L3.36266 41.1818L4.42798 42.3295L8.8537 43.3129L11.8043 40.9365L16.8041 41.7559L18.6893 39.2975L22.0502 38.3141L30.0821 36.839L34.6717 38.3141L36.8848 43.3139L38.4417 41.9203L40.1626 38.6424L40.4085 40.036L39.6709 43.3139L41.3918 43.8875L44.3424 47.8214L47.0471 49.5423H50.5714L53.44 50.0345L56.9643 47.8215H59.2588L61.39 42.4944L63.9303 38.4785C63.9303 38.4785 66.1433 31.5944 66.1433 31.3476C66.1424 31.1012 64.4194 26.1849 64.4194 26.1849L64.4196 26.1848ZM62.6272 37.871L60.1836 41.7335C60.1374 41.8075 60.0977 41.8849 60.0649 41.9654L58.2919 46.3975H56.9614C56.6937 46.3975 56.4309 46.473 56.204 46.6155L53.1411 48.5385L50.8093 48.1392C50.7293 48.1258 50.6489 48.1184 50.5684 48.1184H47.4589L45.3228 46.7591L42.5282 43.0327C42.3543 42.8012 42.114 42.6274 41.8388 42.5365L41.3392 42.3701L41.7941 40.3483C41.8353 40.1645 41.8398 39.9738 41.807 39.7881L41.5612 38.3945C41.4549 37.795 40.9796 37.3287 40.3777 37.2348C40.3042 37.2234 40.2312 37.2179 40.1581 37.2179C39.6357 37.2179 39.1465 37.5065 38.8981 37.9798L37.3675 40.8957L35.9699 37.7379C35.8055 37.3664 35.4901 37.0829 35.1032 36.9582L30.5136 35.4831C30.3726 35.4374 30.2251 35.4146 30.0781 35.4146C29.9922 35.4146 29.9057 35.4225 29.8208 35.4379L21.789 36.913C21.7408 36.9215 21.6926 36.9329 21.6459 36.9473L18.286 37.9307C17.9955 38.0156 17.7397 38.1904 17.5565 38.4313L16.1902 40.2133L12.0322 39.5319C11.9552 39.519 11.8783 39.5135 11.8018 39.5135C11.4794 39.5135 11.1631 39.6233 10.9083 39.8289L8.49107 41.7762L5.25338 41.0571L5.30751 40.9875C5.47836 40.7655 5.58017 40.4978 5.59955 40.2187L5.84539 36.6945C5.85979 36.4888 5.829 36.2822 5.7555 36.089L3.00857 28.8653L3.21766 26.9095C3.25888 26.5236 3.14068 26.1377 2.89086 25.8407L2.07585 24.8722C2.3644 23.9132 2.69518 22.8136 2.83921 22.3447C3.29215 21.8327 4.79797 20.2901 6.23977 18.8433L10.0243 18.3338C10.1276 18.3194 10.2284 18.2945 10.3268 18.2588L13.4413 17.111C13.7169 17.0092 13.9548 16.825 14.1212 16.5836L15.7602 14.2072C15.9241 13.9693 16.012 13.6872 16.012 13.3991V12.7256C16.2792 13.0639 16.6889 13.266 17.1284 13.266C17.1498 13.266 17.1712 13.2655 17.1925 13.2645C17.7542 13.2387 18.2489 12.8856 18.454 12.3616L19.8909 8.69682L22.7034 7.31859L23.8725 8.38589C24.1347 8.62528 24.4769 8.75838 24.833 8.75838H27.2095C27.9961 8.75838 28.6333 8.12118 28.6333 7.33451V6.32979L29.9251 4.1395L31.4404 4.08537C32.0036 4.0655 32.5017 3.71436 32.7118 3.19089L32.9204 2.66891L36.8644 3.52165L36.9463 4.01235L35.1733 6.92023C34.7695 7.58227 34.9697 8.44544 35.6233 8.86259L41.2225 12.4335L42.645 13.5401C42.9013 13.7392 43.2097 13.84 43.5191 13.84C43.7823 13.84 44.0461 13.7675 44.2795 13.62L45.8365 12.6367C46.1062 12.4658 46.3113 12.2095 46.4181 11.9091L47.3195 9.36874C47.3736 9.21577 47.4014 9.05485 47.4014 8.89245V5.18992L47.6577 3.98753L48.8238 7.09757C48.9748 7.49986 49.2996 7.81225 49.7069 7.94834L51.1417 8.42661L52.4509 14.754C52.5313 15.1434 52.7712 15.4816 53.1129 15.6867L56.8368 17.9211L58.2919 21.0495C58.3456 21.1632 58.4131 21.27 58.4941 21.3663L63.1606 26.903C63.7874 28.6979 64.4459 30.6319 64.6694 31.3575C64.4017 32.2932 63.4794 35.2174 62.6272 37.871L62.6272 37.871Z" fill="#303030"/>
<path d="M56.4948 53.3552L53.5616 54.0724L51.6709 53.0294L51.3446 53.5504L52.7784 57.918L54.995 58.5701L57.4073 55.7998L57.0164 53.2903L56.4948 53.3552ZM54.5212 56.9465L53.8989 56.7637L53.4822 55.4943C53.5085 55.4958 53.5348 55.4963 53.5622 55.4963C53.6754 55.4963 53.7886 55.4829 53.9004 55.4556L55.8398 54.9812L55.8994 55.3642L54.5212 56.9465Z" fill="#303030"/>
</svg>
