<svg width="57" height="49" viewBox="0 0 57 49" fill="none" xmlns="http://www.w3.org/2000/svg">
<path d="M44.2862 25.0111C51.0518 25.0111 56.5554 19.5349 56.5554 12.8034C56.5554 7.53716 52.7301 3.27511 49.1766 1.54216L47.9223 0.930859V9.97864L44.4347 11.9749L40.947 9.97864L40.9464 1.07131L39.7554 1.54028C35.0773 3.38269 32.171 7.69831 32.171 12.8028C32.171 14.2815 32.4289 15.723 32.9398 17.0964L28.4995 21.5362L24.0604 17.0971C24.5713 15.723 24.8292 14.2814 24.8292 12.8034C24.8292 7.69893 21.923 3.38331 17.2436 1.5409L16.0527 1.07194V9.97864L12.565 11.9749L9.07728 9.97864L9.07667 0.930237L7.82243 1.54154C4.26841 3.27448 0.443604 7.53654 0.443604 12.8028C0.443604 19.5343 5.94779 25.0105 12.7128 25.0105C14.0145 25.0105 15.3015 24.7988 16.546 24.3809L21.0994 28.9343L10.6969 39.3379C9.7091 40.3269 9.16472 41.6408 9.16472 43.038C9.16472 44.4352 9.70912 45.749 10.6969 46.7368C11.6847 47.7259 12.9992 48.2696 14.397 48.2696C15.7948 48.2696 17.108 47.7253 18.0958 46.7368L28.4994 36.3343L38.903 46.7379C39.892 47.7269 41.2059 48.2707 42.6031 48.2707C44.0003 48.2707 45.3141 47.7263 46.3019 46.7379C47.291 45.7501 47.8347 44.4357 47.8347 43.0391C47.8347 41.6419 47.2904 40.3281 46.3019 39.339L35.8983 28.9359L40.4517 24.3825C41.6974 24.7991 42.9846 25.0108 44.2862 25.0108L44.2862 25.0111ZM16.9864 22.3548L16.4572 22.5604C15.248 23.0293 13.9883 23.2666 12.714 23.2666C6.91005 23.2666 2.18863 18.5726 2.18863 12.8027C2.18863 8.89709 4.66978 5.62102 7.33328 3.83389V10.9894L12.5656 13.9838L17.7979 10.9894V3.71772C21.0905 5.50781 23.0867 8.88246 23.0867 12.8021C23.0867 14.2437 22.8009 15.6439 22.2364 16.9632L22.0046 17.5058L27.2673 22.7672L22.3343 27.7003L16.9864 22.3548ZM45.0694 40.5702C45.7288 41.2296 46.0913 42.1061 46.0913 43.0374C46.0913 43.9686 45.7288 44.844 45.0694 45.5033C43.7507 46.822 41.4539 46.822 40.1364 45.5033L29.7328 35.1001L34.6659 30.1671L45.0694 40.5702ZM16.8634 45.5045C15.5446 46.8238 13.2491 46.822 11.9303 45.5045C11.2722 44.8451 10.9091 43.9699 10.9091 43.0386C10.9091 42.1074 11.2716 41.2309 11.9303 40.5715L34.9947 17.5071L34.763 16.9645C34.1997 15.6452 33.9126 14.245 33.9126 12.8034C33.9126 8.88371 35.9077 5.50908 39.2002 3.71898V10.9907L44.4325 13.9851L49.6649 10.9907V3.83515C52.3296 5.62103 54.8095 8.89711 54.8095 12.804C54.8095 18.574 50.0876 23.2678 44.2841 23.2678C43.0105 23.2678 41.7507 23.0306 40.5409 22.5604L40.0118 22.3554L16.8634 45.5045Z" fill="#333333"/>
</svg>
