<svg width="62" height="53" viewBox="0 0 62 53" fill="none" xmlns="http://www.w3.org/2000/svg">
<path d="M61.7949 38.5692C61.6716 38.3868 58.9611 34.3739 51.8773 35.955C47.6883 36.9275 44.3006 37.9611 42.4525 38.6299C42.2677 36.9882 40.851 35.6506 39.1263 35.5899L13.3159 30.6041V29.1448C13.3159 28.5977 12.8845 28.1719 12.3302 28.1719L1.79637 28.1723C1.24207 28.1723 0.810669 28.5981 0.810669 29.1452V49.0876C0.810669 49.6347 1.24208 50.0605 1.79637 50.0605H12.3302C12.8845 50.0605 13.3159 49.6347 13.3159 49.0876V46.9594C17.2583 48.5401 28.5311 52.7353 34.3831 52.7353C41.4669 52.7353 60.6863 40.4537 61.4871 39.9673C61.98 39.664 62.1033 39.0559 61.7952 38.5694L61.7949 38.5692ZM2.84367 48.0539V30.1787H11.3446V48.0539H2.84367ZM34.3829 50.7898C28.531 50.7898 16.2109 45.9868 13.3157 44.8922V32.6714L38.9413 37.5961C39.8037 37.5961 40.4813 38.2649 40.4813 39.1161C40.4813 39.9673 39.8037 40.6361 38.9413 40.6361H24.5885C24.0342 40.6361 23.6028 41.0619 23.6028 41.609C23.6028 42.1561 24.0342 42.5819 24.5885 42.5819H39.0029C40.2348 42.5819 41.3438 41.9131 42.0214 40.9402C43.13 40.5144 47.0728 39.0555 52.4319 37.8395C56.251 36.9883 58.4686 38.0825 59.4543 38.873C55.3271 41.4872 40.0503 50.7898 34.3831 50.7898L34.3829 50.7898Z" fill="#333333"/>
<path d="M56.374 11.0268C56.2507 10.6621 55.9426 10.4186 55.5731 10.358L46.7026 9.08095L46.6411 9.02031L42.6987 1.11619C42.514 0.812107 42.2059 0.569092 41.8364 0.569092C41.4668 0.569092 41.1587 0.751459 40.974 1.11619L36.9702 9.08089L28.0997 10.3579C27.7302 10.4186 27.4221 10.662 27.2988 11.0267C27.1754 11.3915 27.2988 11.7562 27.545 11.9996L33.9511 18.2013L32.4111 26.9567C32.3497 27.3214 32.4726 27.6861 32.7807 27.8685C33.0888 28.0508 33.4583 28.1115 33.8278 27.9291L41.774 23.7949L49.8444 27.9898C50.1525 28.1722 50.5834 28.1115 50.8915 27.9292C51.1996 27.6862 51.3229 27.3821 51.2611 27.0173L49.7211 18.262L56.1272 12.0603C56.4357 11.7562 56.4972 11.3915 56.3739 11.0268L56.374 11.0268ZM47.9964 17.2285C47.7502 17.4715 47.6883 17.7756 47.6883 18.0797L48.9821 25.4367L42.3294 21.9709C42.0831 21.8492 41.7132 21.8492 41.4055 21.9709L34.7527 25.4367L36.0465 18.0797C36.108 17.7756 35.9851 17.4715 35.7385 17.2285L30.3175 12.0603L37.7714 10.9661C38.0795 10.9055 38.3875 10.7231 38.5104 10.419L41.8366 3.73078L45.1628 10.419C45.2861 10.7231 45.5942 10.9055 45.9019 10.9661L53.3557 12.0603L47.9964 17.2285Z" fill="#333333"/>
</svg>
