<svg width="42" height="42" viewBox="0 0 42 42" fill="none" xmlns="http://www.w3.org/2000/svg">
<path d="M0.552002 0.35189V14.9823H2.85621V2.65589H15.1826V0.351685L0.552002 0.35189Z" fill="#333333"/>
<path d="M41.448 0.351898H26.8176V2.6561H39.144V14.9825H41.4482L41.448 0.351898Z" fill="#333333"/>
<path d="M41.448 26.6176H39.1438V38.944H26.8174V41.2482H41.4478L41.448 26.6176Z" fill="#333333"/>
<path d="M15.1824 38.944H2.85596V26.6176H0.551758V41.248H15.1822L15.1824 38.944Z" fill="#333333"/>
<path d="M21.0001 28.576C23.0625 28.576 25.0404 27.7568 26.4985 26.2982C27.957 24.8401 28.7763 22.8622 28.7763 20.7998C28.7763 18.7374 27.957 16.7595 26.4985 15.3014C25.0404 13.8428 23.0625 13.0236 21.0001 13.0236C18.9377 13.0236 16.9597 13.8428 15.5016 15.3014C14.0431 16.7595 13.2239 18.7374 13.2239 20.7998C13.2239 22.8622 14.0431 24.8401 15.5016 26.2982C16.9597 27.7567 18.9377 28.576 21.0001 28.576ZM21.0001 15.3856V15.3852C22.4546 15.3852 23.8491 15.9646 24.8761 16.9947C25.9027 18.0253 26.4768 19.4219 26.4717 20.8767C26.4668 22.3312 25.8826 23.7238 24.8485 24.7467C23.8147 25.7701 22.4161 26.3394 20.9612 26.329C19.5067 26.3189 18.1162 25.7299 17.0969 24.6925C16.0771 23.6547 15.5131 22.2541 15.5283 20.7996C15.5283 19.3484 16.1049 17.9565 17.131 16.9304C18.1572 15.9043 19.549 15.3277 21.0002 15.3277L21.0001 15.3856Z" fill="#333333"/>
</svg>
