<svg width="45" height="60" viewBox="0 0 45 60" fill="none" xmlns="http://www.w3.org/2000/svg">
<path d="M34.3113 46.6797L41.2148 57.697C41.4762 58.1141 41.344 58.66 40.9194 58.9167C40.4948 59.1734 39.9388 59.0432 39.6779 58.6262L32.7643 47.5942C29.685 49.2463 26.152 50.1853 22.3958 50.1853C18.6396 50.1853 15.1066 49.2464 12.0273 47.5942L5.11371 58.6262C4.85278 59.0432 4.29683 59.1734 3.87217 58.9167C3.44753 58.66 3.31539 58.1141 3.57675 57.697L10.4803 46.6797C4.60928 42.8746 0.735107 36.3381 0.735107 28.9131C0.735107 17.4622 9.94889 8.12354 21.493 7.65974V1.43749C21.493 0.947832 21.8969 0.551208 22.3955 0.551208C22.8941 0.551208 23.298 0.947832 23.298 1.43749V7.65974C34.8422 8.1245 44.0558 17.4622 44.0558 28.9131C44.0558 36.3383 40.1817 42.8752 34.3106 46.6797H34.3113ZM22.3958 48.4122C33.3614 48.4122 42.2517 39.6821 42.2517 28.9127C42.2517 18.1433 33.362 9.4132 22.3958 9.4132C11.4296 9.4132 2.53993 18.1433 2.53993 28.9127C2.53993 39.6821 11.4296 48.4122 22.3958 48.4122ZM22.3958 41.3216C15.4175 41.3216 9.76025 35.766 9.76025 28.9128C9.76025 22.0596 15.4174 16.504 22.3958 16.504C29.3743 16.504 35.0314 22.0596 35.0314 28.9128C35.0314 35.766 29.3743 41.3216 22.3958 41.3216ZM22.3958 39.5486C28.3774 39.5486 33.2263 34.7867 33.2263 28.9125C33.2263 23.0383 28.3778 18.2764 22.3958 18.2764C16.4138 18.2764 11.5653 23.0383 11.5653 28.9125C11.5653 34.7863 16.4138 39.5486 22.3958 39.5486ZM22.3958 32.458C20.4018 32.458 18.7859 30.8707 18.7859 28.9128C18.7859 26.9546 20.4017 25.3674 22.3958 25.3674C24.3899 25.3674 26.0058 26.9546 26.0058 28.9128C26.0058 30.8706 24.3899 32.458 22.3958 32.458ZM22.3958 30.6854C23.3926 30.6854 24.2008 29.8917 24.2008 28.9128C24.2008 27.9339 23.3926 27.1402 22.3958 27.1402C21.399 27.1402 20.5908 27.9339 20.5908 28.9128C20.5908 29.8917 21.399 30.6854 22.3958 30.6854Z" fill="#333333"/>
</svg>
